<?xml version="1.0" encoding="utf-8"?>
<!-- Generator: Adobe Illustrator 24.3.0, SVG Export Plug-In . SVG Version: 6.00 Build 0)  -->
<svg version="1.1" id="Layer_1" xmlns="http://www.w3.org/2000/svg" xmlns:xlink="http://www.w3.org/1999/xlink" x="0px" y="0px"
	 viewBox="0 0 2982.7 545.6" style="enable-background:new 0 0 2982.7 545.6;" xml:space="preserve">
<style type="text/css">
	.st0{fill:#de1212 ;stroke:#40a9ff;stroke-miterlimit:10;}
	.st1{fill:#0d1117;}
</style>
<g>
	<g>
		<g>
			<g>
				<path class="st0" d="M2915.5,226.1L2664.7,71.6c-18.2-11.2-40.1-11.6-58.7-1.2s-29.8,29.3-29.8,50.6v307.7
					c0,32.2,25.9,58.5,57.8,58.7h0.2c10,0,20.3-3.2,30.1-9.1c7.9-4.7,10.3-14.9,5.4-22.8c-4.7-7.9-14.9-10.3-22.8-5.4
					c-4.6,2.8-8.9,4.2-13,4.2c-12.1,0-24.9-10.3-24.9-25.6V121c0-9.1,4.7-17.3,12.8-21.7c8.1-4.4,17.3-4.2,25.2,0.5L2898,254.3
					c7.5,4.6,11.9,12.4,11.9,21.2c0,8.9-4.4,16.6-11.9,21.2l-181.3,111c-7.9,4.7-10.3,14.9-5.4,22.8c4.7,7.9,14.9,10.3,22.8,5.4
					l181.3-111c17.3-10.5,27.7-29.1,27.8-49.4C2943,255.4,2932.7,236.8,2915.5,226.1z"/>
				<path class="st0" d="M2634.2,505L2634.2,505c-41.7-0.2-75.5-34.3-75.5-76.2V121c0-27.8,14.5-52.4,38.7-65.9
					c24.2-13.5,52.7-13,76.4,1.6l250.8,154.5c22.2,13.8,35.7,37.8,35.9,64.1v0.4c-0.2,26.6-13.8,50.6-36.3,64.3L2743,451
					c-7.7,4.7-17,6.3-25.9,4.2c-8.8-2.1-16.3-7.5-21-15.4c-4.9-7.9-6.3-17-4.2-25.9c2.1-8.9,7.7-16.3,15.6-21l181.1-111
					c2.5-1.4,3.5-3.5,3.5-6.3c0-2.6-1.2-4.9-3.5-6.1l-250.5-154.5c-2.6-1.6-5.1-1.6-7.7-0.2c-2.3,1.2-3.7,3.5-3.7,6.3v307.7
					c0,5.4,4.7,8.1,7.4,8.1c0.4,0,1.6-0.4,3.9-1.6c7.7-4.9,17-6.3,25.9-4.2c8.8,2.1,16.3,7.5,21,15.4c4.7,7.9,6.3,17,4.2,25.9
					c-2.1,8.9-7.7,16.3-15.6,21C2660.9,500.9,2647.4,505,2634.2,505z M2656.3,465L2656.3,465L2656.3,465z M2725.8,422.6
					L2725.8,422.6L2725.8,422.6z M2724.8,421.1L2724.8,421.1L2724.8,421.1z"/>
			</g>
		</g>
	</g>
	<g>
		<path class="st1" d="M154.9,45.4v272.2c0,27.2,6.7,48.2,20.1,62.9c13.4,14.7,33.1,22,59,22c25.9,0,45.8-7.3,59.6-22
			c13.8-14.7,20.7-35.6,20.7-62.9V45.4h110.8V317c0,40.6-8.6,75-25.9,103.1c-17.3,28.1-40.5,49.3-69.7,63.5
			C300.4,497.8,267.8,505,232,505c-35.9,0-68-7-96.2-21.1c-28.3-14-50.7-35.2-67.1-63.5C52.2,392.1,44,357.6,44,317V45.4H154.9z"/>
		<path class="st1" d="M799.1,45.4v88.8H613.7v95.9h138.7v86.2H613.7v184.1H502.9v-455H799.1z"/>
		<path class="st1" d="M968.3,45.4v455H857.4v-455H968.3z"/>
		<path class="st1" d="M1159.5,414.9h145.2v85.6h-256v-455h110.8V414.9z"/>
		<path class="st1" d="M1873.1,45.4v455h-110.8V227.6l-101.8,272.9H1571l-102.4-273.5v273.5h-110.8v-455h130.9l127.7,315l126.4-315
			H1873.1z"/>
		<path class="st1" d="M2236,420.1h-169.8l-27.2,80.4h-116l164.6-455h128.3l164.6,455h-117.3L2236,420.1z M2207.5,334.5l-56.4-166.6
			l-55.7,166.6H2207.5z"/>
	</g>
</g>
</svg>
