<?xml version="1.0" encoding="utf-8"?>
<!-- Generator: Adobe Illustrator 23.0.3, SVG Export Plug-In . SVG Version: 6.00 Build 0)  -->
<svg version="1.1" id="Layer_1" xmlns="http://www.w3.org/2000/svg" xmlns:xlink="http://www.w3.org/1999/xlink" x="0px" y="0px"
	 viewBox="0 0 1772.3 781" style="enable-background:new 0 0 1772.3 781;" xml:space="preserve">
<style type="text/css">
	.st0{enable-background:new    ;}
	.st1{fill:#F3F3F3;}
	.st2{fill:#40a9ff;}
</style>
<g>
	<g class="st0">
		<path class="st1" d="M59.2,463.8c11.4,13.3,26.9,20,46.4,20s35-6.7,46.4-20s17.1-31.4,17.1-54.3V271.4h42.1v139.9
			c0,35.9-9.9,63.6-29.6,83c-19.8,19.4-45.1,29.1-76,29.1s-56.3-9.7-76-29.1C9.8,474.9,0,447.2,0,411.3V271.4h42.1v138.1
			C42.1,432.4,47.8,450.5,59.2,463.8z"/>
		<path class="st1" d="M319.4,310.7v68.5H430v38.9H319.4v102.8h-42.1V271.4h166.3l-0.4,39.3L319.4,310.7L319.4,310.7z"/>
		<path class="st1" d="M492.8,271.4h42.1v249.5h-42.1V271.4z"/>
		<path class="st1" d="M604.2,520.9V271.4h42.1v209.5h113.9v40H604.2z"/>
		<path class="st1" d="M848.3,520.9h-42.1V271.4h65.7l75.3,156.7l75.3-156.7h65.3v249.5h-42.1V326l-87.1,173.1H935L848.3,326V520.9z
			"/>
		<path class="st1" d="M1192.4,464.1l-25,56.8h-45l109.9-249.5h45l110,249.5h-45l-25-56.8L1192.4,464.1L1192.4,464.1z M1300.2,425.2
			l-45.3-102.8l-45.3,102.8H1300.2z"/>
	</g>
	<g>
		<g>
			<g>
				<path class="st2" d="M1746.6,371.5l-143.2-88.2c-10.4-6.4-22.9-6.6-33.5-0.7s-17,16.7-17,28.9v175.7c0,18.4,14.8,33.4,33,33.5
					h0.1c5.7,0,11.6-1.8,17.2-5.2c4.5-2.7,5.9-8.5,3.1-13c-2.7-4.5-8.5-5.9-13-3.1c-2.6,1.6-5.1,2.4-7.4,2.4
					c-6.9,0-14.2-5.9-14.2-14.6V311.5c0-5.2,2.7-9.9,7.3-12.4c4.6-2.5,9.9-2.4,14.4,0.3l143.2,88.2c4.3,2.6,6.8,7.1,6.8,12.1
					c0,5.1-2.5,9.5-6.8,12.1l-103.5,63.4c-4.5,2.7-5.9,8.5-3.1,13c2.7,4.5,8.5,5.9,13,3.1l103.5-63.4c9.9-6,15.8-16.6,15.9-28.2
					C1762.3,388.2,1756.4,377.6,1746.6,371.5z"/>
				<path class="st2" d="M1586,530.7L1586,530.7c-23.8-0.1-43.1-19.6-43.1-43.5V311.5c0-15.9,8.3-29.9,22.1-37.6
					c13.8-7.7,30.1-7.4,43.6,0.9l143.2,88.2c12.7,7.9,20.4,21.6,20.5,36.6v0.2c-0.1,15.2-7.9,28.9-20.7,36.7l-103.5,63.4
					c-4.4,2.7-9.7,3.6-14.8,2.4c-5-1.2-9.3-4.3-12-8.8c-2.8-4.5-3.6-9.7-2.4-14.8c1.2-5.1,4.4-9.3,8.9-12l103.4-63.4
					c1.4-0.8,2-2,2-3.6c0-1.5-0.7-2.8-2-3.5l-143-88.2c-1.5-0.9-2.9-0.9-4.4-0.1c-1.3,0.7-2.1,2-2.1,3.6v175.7
					c0,3.1,2.7,4.6,4.2,4.6c0.2,0,0.9-0.2,2.2-0.9c4.4-2.8,9.7-3.6,14.8-2.4c5,1.2,9.3,4.3,12,8.8s3.6,9.7,2.4,14.8
					c-1.2,5.1-4.4,9.3-8.9,12C1601.2,528.4,1593.5,530.7,1586,530.7z M1598.6,507.9L1598.6,507.9L1598.6,507.9z M1638.3,483.7
					L1638.3,483.7L1638.3,483.7z M1637.7,482.8L1637.7,482.8L1637.7,482.8z"/>
			</g>
		</g>
	</g>
</g>
</svg>
