<?xml version="1.0" encoding="utf-8"?>
<!-- Generator: Adobe Illustrator 23.0.3, SVG Export Plug-In . SVG Version: 6.00 Build 0)  -->
<svg version="1.1" id="Layer_1" xmlns="http://www.w3.org/2000/svg" xmlns:xlink="http://www.w3.org/1999/xlink" x="0px" y="0px"
	 viewBox="0 0 331 355.1" style="enable-background:new 0 0 331 355.1;" xml:space="preserve">
<style type="text/css">
	.st0{fill:#F0F0F0;}
	.st1{fill:#F5F5F5;}
	.st2{fill:#E0E0E0;}
	.st3{display:none;}
	.st4{display:inline;}
	.st5{fill:#407BFF;}
	.st6{opacity:0.9;fill:#FFFFFF;enable-background:new    ;}
	.st7{fill:#263238;}
	.st8{fill:#FFC3BD;}
	.st9{fill:#DE1212;}
	.st10{opacity:0.2;enable-background:new    ;}
	.st11{fill:#FFFFFF;}
	.st12{fill:#ED847E;}
	.st13{fill:#DD4A4A;}
	.st14{opacity:0.8;fill:#DE1212;enable-background:new    ;}
	.st15{opacity:0.1;fill:#DE1212;enable-background:new    ;}
	.st16{opacity:0.2;fill:#DE1212;enable-background:new    ;}
</style>
<g id="Background_Complete">
	<g>
		<g>
			<path class="st0" d="M91.9,215.7H20.7v89h71.2c6.9,0,12.5-5.6,12.5-12.5v-64C104.4,221.3,98.7,215.7,91.9,215.7z"/>
			<path class="st1" d="M21.2,215.7H20c-6.9,0-12.5,5.6-12.5,12.5v64c0,6.9,5.6,12.5,12.5,12.5h1.2c6.9,0,12.5-5.6,12.5-12.5v-64
				C33.8,221.3,28.1,215.7,21.2,215.7z"/>
		</g>
		<rect x="30.2" y="248.5" class="st0" width="92.9" height="56.2"/>
		<path class="st2" d="M22.6,307.5H190c1.4,0,2.6-1.1,2.6-2.6v-0.2H91.9L20,304.9C20,306.3,21.1,307.5,22.6,307.5z"/>
		<path class="st2" d="M95.9,178.7h86.5c9.6,0,16.8,7.8,15.9,17.5l-5.7,65H71.2l5.7-65C77.8,186.6,86.3,178.7,95.9,178.7z"/>
		<path class="st1" d="M82.3,178.7h88.1c9.2,0,16,7.4,15.2,16.6l-5.8,65.8H58.4l5.8-65.8C65,186.2,73.1,178.7,82.3,178.7z"/>
		<path class="st2" d="M37.6,243.4h73.6c4.4,0,7.9,3.5,7.9,7.9v7.1c0,4.4-3.5,7.9-7.9,7.9H37.6c-6.3,0-11.4-5.1-11.4-11.4l0,0
			C26.2,248.5,31.3,243.4,37.6,243.4z"/>
		<path class="st0" d="M194.7,215.7h-71.2v89h71.2c6.9,0,12.5-5.6,12.5-12.5v-64C207.3,221.3,201.6,215.7,194.7,215.7z"/>
		<path class="st1" d="M124.1,215.7h-1.2c-6.9,0-12.5,5.6-12.5,12.5v64c0,6.9,5.6,12.5,12.5,12.5h1.2c6.9,0,12.5-5.6,12.5-12.5v-64
			C136.6,221.3,131,215.7,124.1,215.7z"/>
	</g>
</g>
<g id="Background_Simple" class="st3">
	<g class="st4">
		<path class="st5" d="M100.8,67.8c28.2-4.3,53-22.4,72.5-45.6C258-96.4,432.6-12.2,333.5,134.5c-48,75.8-112.9,90-179.7,94.7
			C19.9,245.4,4.5,130.9,17.5,97.5C31,64.7,73.7,72.8,100.8,67.8z"/>
		<path class="st6" d="M100.8,67.8c28.2-4.3,53-22.4,72.5-45.6C258-96.4,432.6-12.2,333.5,134.5c-48,75.8-112.9,90-179.7,94.7
			C19.9,245.4,4.5,130.9,17.5,97.5C31,64.7,73.7,72.8,100.8,67.8z"/>
	</g>
</g>
<g id="Shadow_1_">
</g>
<g id="Character_1_">
	<path class="st7" d="M111,40.7c2.5-5.8-19.8-11-26.6,6.8c-6.1,16.1-16.3,20.3-11.5,31.4C78.1,91,107.3,92.4,120,79
		c10.3-10.9-0.9-15.4,0.6-25.7C122.1,43.2,119,39.8,111,40.7z"/>
	<path class="st7" d="M70.3,75.3c-1.2-6.3,1.2-8.9,4.1-12.2c2.7-3,6.1-6.7,7.9-14.8c1.5-6.5,5.9-10.8,12.5-12
		c6.6-1.2,13.6,0.9,15.4,3.7c0.6,0.9,0.6,1.9,0.1,2.7l-0.8-0.5c0.3-0.5,0.3-1-0.1-1.6c-1.6-2.4-8.3-4.4-14.4-3.3
		c-4.4,0.8-9.9,3.4-11.7,11.2c-1.9,8.3-5.4,12.1-8.1,15.2c-2.9,3.2-5,5.5-3.9,11.3L70.3,75.3z"/>
	<path class="st8" d="M56.6,70.6l-0.6-2c-0.4-1.4-1.2-2.6-2.2-3.5l-2-1.8c-1.3-1.2-3.3-1.3-4.7-0.2L45,64.7c-1.6,1.2-2,3.6-0.7,5.2
		l1.4,1.8c0,0,3.2,5.5,7.9,7.4l1.1-0.9c0,0,0,0,0.1,0C56.7,76.1,57.4,73.2,56.6,70.6z"/>
	<path class="st8" d="M95.5,105.3l-0.6,0.5l-0.5,0.4l-1,0.7c-0.7,0.4-1.3,0.9-2,1.2c-1.4,0.8-2.8,1.5-4.2,2.1
		c-2.9,1.3-6,2.2-9.2,2.8c-3.3,0.6-6.7,0.6-10.2,0.1c-1.7-0.3-3.4-0.7-5.1-1.3c-0.4-0.1-0.8-0.3-1.2-0.5l-0.6-0.3l-0.3-0.1l-0.3-0.1
		l-0.4-0.2c-1.1-0.5-1.8-1.2-2.4-1.7c-0.6-0.6-1-1.1-1.4-1.5c-1.4-1.9-2.1-3.5-2.7-5s-1.1-2.9-1.5-4.3c-0.8-2.8-1.4-5.5-1.8-8.2
		c-0.9-5.4-1.4-10.7-1.5-16.1c0-2.2,1.7-4.1,4-4.1c1.8,0,3.3,1.1,3.9,2.7v0.1c1.7,4.8,3.4,9.7,5.2,14.4c0.9,2.3,1.8,4.6,2.8,6.7
		c0.5,1.1,1,2.1,1.5,2.9s1.1,1.6,1.3,1.7c0,0,0,0-0.1-0.1s-0.3-0.3-0.8-0.6l-0.2-0.1c-0.1,0-0.2-0.1-0.1-0.1h0.2l0.3,0.1
		c0.2,0.1,0.4,0.1,0.6,0.1c0.8,0.2,1.7,0.2,2.6,0.3c1.7,0.1,3.5-0.1,5.4-0.6c1.8-0.5,3.7-1.1,5.6-2c0.9-0.4,1.8-0.9,2.7-1.4
		c0.5-0.2,0.9-0.5,1.3-0.8l1-0.6l0.8-0.5c3.8-2.3,8.7-1.2,11.1,2.6C99.6,98.2,98.7,102.8,95.5,105.3z"/>
	<path class="st9" d="M113,337c6.3-2.1,11.7-6.4,10.6-13.9c-0.5-3.2,9.9-4.5,9.9-4.5c-1.2,10.2,0.1,12,1.3,14.3
		c1.2,2.4,1.2,5.1-1,5.4c-2.6,0.3-3.1,0-6.3,0.4c-3.7,0.5-6.1,2.4-13.6,2.4C109.9,341.2,111,337.6,113,337z"/>
	<path class="st9" d="M132.3,227.7c0.7-51.2-4-79.2-4-79.2l-37.9,1.9c0,0,5.6,46.9,15.6,81.4c2.7,18.5,8.7,49.9,12.8,70.9
		c6.6-0.7,13.1-1.8,18.2-3.4C138.3,280.8,138.6,254.1,132.3,227.7z"/>
	<path class="st8" d="M133.1,323.6c0,0,1.5-9.7,2.5-24.3c-4.3,1.6-9.9,2.8-15.5,3.4c2.2,12.8,3.7,20.9,3.7,20.9
		C125.6,324.6,130.4,324.9,133.1,323.6z"/>
	<path class="st7" d="M116.6,296.6c0.3,1.8,1.3,6.2,2.2,7.7c0.1,0.2,0.3,0.3,0.5,0.3c7.1,0.9,14.1-0.5,17.1-1.8
		c0.2-0.1,0.3-0.2,0.3-0.4c0.8-2.1,1.1-6.6,1.2-8.5c0-0.4-0.4-0.8-0.8-0.7c-2.3,0.5-9.4,1.7-19.8,2.5
		C116.9,295.8,116.6,296.2,116.6,296.6z"/>
	<g>
		<path class="st7" d="M90.8,90.2c-5.6,1-14.2,5.7-14.2,5.7s-4.5,10.8,0.9,18.6c5.3,1.3,8,0.2,8,0.2L90.8,90.2z"/>
		<path class="st10" d="M77.5,114.5c5.3,1.3,8,0.2,8,0.2l-0.2-14.6C81.7,105,78.7,109.8,77.5,114.5z"/>
	</g>
	<path class="st10" d="M132,197.5c-4.2-10.4-8.8-18.9-10.5-26.7c-3,21.2-0.6,40.7,10.8,54.7C132.4,215.1,132.3,205.8,132,197.5z"/>
	<path class="st9" d="M190,278.8l-15.1,10.8c-12.3-16.1-30.9-40.7-35.3-51.4c-11.4-27.1-34.3-87-34.3-87l29.7-6.9
		c0,0,18.7,17.4,30.8,83.1C175.9,241.7,184.4,262.9,190,278.8z"/>
	<path class="st9" d="M189.1,329.8c3.8-7.4,3.8-15.5-0.3-21.9c-1.7-2.7,7.1-8.1,7.1-8.1c3.1,9.8,5.7,10.4,7.9,11.9
		c2.2,1.6,2.4,4.8,0.6,5.9c-2.2,1.3-3.1,2.2-5,4.7c-2.3,3-3.6,7.1-6.8,9.7C190.5,333.6,187.5,333,189.1,329.8z"/>
	<path class="st8" d="M197.7,304.2c0,0-2.6-9.2-7.7-22.9c-3.3,3.3-7.9,6.6-12.7,9.5c7.2,10.8,12.5,18.5,12.5,18.5
		C192.9,308.3,195.7,306.5,197.7,304.2z"/>
	<path class="st7" d="M171.6,286.7c1,1.5,3.7,5.1,5.1,6.1c0.2,0.1,0.4,0.2,0.6,0.1c6.8-2.1,12.7-6.3,14.8-8.7
		c0.1-0.1,0.2-0.3,0.2-0.5c-0.1-2.3-1.7-6.4-2.4-8.2c-0.2-0.4-0.7-0.6-1-0.3c-1.9,1.4-7.8,5.4-17,10.4
		C171.5,285.9,171.4,286.3,171.6,286.7z"/>
	<path class="st7" d="M82.3,105.1c1.4,8.8-3.9,15.7,4.2,19.8c-1.3,6.7,0.7,20.2,3.9,25.5c4.5,2.4,26.6-1.2,44.6-6.1
		c-0.3-7.7-6.6-22.8-4.8-48.1c0.4-5.8-4.3-10.8-10.2-10.5c-1.6,0.1-3.2,0.2-4.9,0.3c-6.6,0.6-11.9,1.1-17.6,2.4
		c-1.9,0.4-3.8,0.9-5.6,1.5C85.2,91.7,81.2,98.3,82.3,105.1z"/>
	<path class="st11" d="M95,98.4c0,0,5.6-2.1,8.6,3c4.9-2.8,11.9-14.5,11.4-15.4C106.7,88.2,95,98.4,95,98.4z"/>
	<path class="st11" d="M95,98.4c0,0-4.3-0.5-5.5,3.3c0-7.5,5.1-12.2,7.3-13.1C96,90.5,95,98.4,95,98.4z"/>
	<path class="st8" d="M112.8,66.1c-0.6,5.8-0.7,15.2,2.2,19.9c0,0-11,7.5-20,12.4c-2.8-6.6,1.8-9.8,1.8-9.8
		c4.3-1.6,4.3-7.1,3.7-11.3L112.8,66.1z"/>
	<path class="st10" d="M100.4,77.2l7-6.3c0.3,1,0.1,2.3-0.2,3.5c-1.1,3.5-4,6.2-6.6,7.7C100.8,80.5,100.7,78.8,100.4,77.2z"/>
	<path class="st8" d="M115.1,55.3c-0.9,9.5-1.1,13.5-6.1,18.2c-7.4,7.1-18.6,3.8-20.5-5.8c-1.7-8.6,0.2-22.7,9.4-26.1
		C107.2,38.2,116,45.8,115.1,55.3z"/>
	<path class="st7" d="M113,62.2c-3.4-3-2.8-8.3-0.3-10.8s6,2.7,6,2.7L113,62.2z"/>
	<path class="st7" d="M101.4,57.9c0,0.8-0.5,1.4-1,1.4s-0.9-0.7-0.9-1.4c0-0.8,0.5-1.4,1-1.4C101.1,56.5,101.4,57.1,101.4,57.9z"/>
	<path class="st7" d="M91.9,57.7c0,0.8-0.5,1.4-1,1.4S90,58.4,90,57.7c0-0.8,0.5-1.4,1-1.4C91.5,56.2,91.9,56.9,91.9,57.7z"/>
	<path class="st7" d="M91.2,56.3l-1.8-0.6C89.4,55.7,90.3,57.2,91.2,56.3z"/>
	<path class="st12" d="M94.2,58c0,0-1.4,3.3-3,4.8c1,1,2.7,0.6,2.7,0.6L94.2,58z"/>
	<path class="st7" d="M98.3,66.5c-0.4,0.1-0.8,0.1-1.3,0.1c-0.1,0-0.2-0.1-0.2-0.2s0.1-0.2,0.2-0.2c3.4,0.1,5.1-2.2,5.1-2.2
		c0.1-0.1,0.2-0.1,0.3-0.1c0.1,0.1,0.1,0.2,0.1,0.3C102.5,64.2,101.1,66.1,98.3,66.5z"/>
	<path class="st8" d="M116.7,63.2c-0.9,1.8-2.4,2.9-3.8,3.3c-2.1,0.5-3.1-1.8-2.5-4.2c0.6-2.1,2.4-4.9,4.5-4.4
		S117.7,61.2,116.7,63.2z"/>
	<path class="st7" d="M110.2,41.7c-7.5,4.8-15.6,7.1-22.1,7.9C88,42.8,101.4,35.2,110.2,41.7z"/>
	<path class="st7" d="M105,42.6c-1.6,6,13.9,17,11,27.6c5.1-7.9,1.4-25.7,1.4-25.7S104.3,36.2,105,42.6z"/>
	<path class="st7" d="M103.4,52.8c-0.1,0-0.2-0.1-0.3-0.2c-1.1-1.7-2.8-1.7-2.8-1.7c-0.2,0-0.5-0.2-0.5-0.4c0-0.3,0.2-0.5,0.4-0.5
		c0.1,0,2.2,0,3.6,2.1c0.1,0.2,0.1,0.5-0.1,0.6C103.6,52.8,103.5,52.8,103.4,52.8z"/>
	<path class="st7" d="M87.7,52.5c-0.1,0-0.2,0-0.3-0.1c-0.2-0.2-0.2-0.5,0-0.6c1.8-1.8,3.8-1.4,3.9-1.4c0.2,0.1,0.4,0.3,0.4,0.5
		c-0.1,0.2-0.3,0.4-0.5,0.4c-0.1,0-1.7-0.3-3.1,1.1C87.9,52.4,87.8,52.5,87.7,52.5z"/>
	<path class="st7" d="M100.8,56.5L99,55.9C98.9,55.9,99.8,57.4,100.8,56.5z"/>
	<path class="st10" d="M129.8,101.1c-0.2,5.9,0.1,11.2,0.5,16c-5-5.3-11.3-15.3-11.7-20.2L129.8,101.1z"/>
	<path class="st8" d="M162.5,82.3l1.1-6.4l9.9,3.8c0,0-2.3,5.9-6.5,8.5l-1.2-0.7C163.9,86.3,162.7,84.4,162.5,82.3z"/>
	<path class="st8" d="M169.8,72.4l3.2,1.8c1.5,0.8,2,2.6,1.2,4.1l-0.8,1.5l-9.9-3.8l2.3-2.8C166.9,72,168.5,71.7,169.8,72.4z"/>
	<path class="st8" d="M128.1,89.6l1.3,1.3l1.4,1.4c0.9,0.9,1.9,1.8,2.8,2.7c1.9,1.8,3.9,3.5,5.8,5c2,1.5,4,2.9,5.9,3.9
		s3.8,1.7,5.1,1.8l-2.7,0.5c-0.7,0.3-0.6,0.5-0.5,0.4s0.4-0.3,0.7-0.6c0.6-0.6,1.3-1.5,2-2.5c1.4-1.9,2.7-4.1,4-6.4s2.6-4.6,3.9-7
		l3.9-7.1v-0.1c1.1-2,3.5-2.7,5.5-1.6c1.6,0.8,2.3,2.6,2.1,4.2c-0.5,2.9-1.1,5.6-1.8,8.4s-1.5,5.5-2.5,8.2s-2,5.5-3.5,8.3
		c-0.7,1.4-1.5,2.8-2.6,4.4c-0.6,0.8-1.2,1.6-2.1,2.4c-0.9,0.8-2,1.8-3.9,2.6c-0.7,0.3-1.5,0.5-2.2,0.5h-0.4
		c-4.4,0.1-8.2-1-11.5-2.4c-1.6-0.7-3.2-1.5-4.7-2.3s-2.8-1.7-4.2-2.6c-2.7-1.8-5.1-3.9-7.5-6c-1.2-1.1-2.3-2.1-3.4-3.3
		c-0.5-0.6-1.1-1.1-1.6-1.7s-1-1.1-1.6-1.9c-2.9-3.4-2.5-8.5,0.9-11.4c3.3-2.8,8.1-2.5,11,0.5L128.1,89.6z"/>
	<path class="st7" d="M120.3,85.7c7.3,0.2,14.6,9,14.6,9s-2.8,11.6-10.9,16.7c-4.5-3.5-8.3-6.3-8.3-6.3
		C109.4,95.7,111.5,89.4,120.3,85.7z"/>
	<path class="st13" d="M88.9,149.7c0.5,3.1,1.2,5.6,1.4,6.3c0,0.2,0.1,0.3,0.3,0.4c1.1,0.6,6,3,14.9,2.5c10.1-0.5,24.7-6,32.3-11.8
		c0.2-0.2,0.3-0.5,0.2-0.7c-0.6-1.5-1.6-3.1-2.1-3.8c-0.2-0.2-0.4-0.3-0.7-0.3c-3.3,1-23.9,6.9-45.7,6.7
		C89.1,149,88.8,149.3,88.9,149.7z"/>
</g>
<g id="Profile">
	<path class="st5" d="M289.3,311.5H157.6c-10.4,0-18.4-8.5-17.8-18.9l16.1-273.7c0.6-10.4,9.6-18.9,20-18.9h131.7
		C318,0,326,8.5,325.4,18.9l-16.1,273.7C308.6,303,299.6,311.5,289.3,311.5z"/>
	<path class="st14" d="M289.3,311.5H157.6c-10.4,0-18.4-8.5-17.8-18.9l16.1-273.7c0.6-10.4,9.6-18.9,20-18.9h131.7
		C318,0,326,8.5,325.4,18.9l-16.1,273.7C308.6,303,299.6,311.5,289.3,311.5z"/>
	<path class="st11" d="M288.5,306h-128c-7.3,0-12.9-6-12.5-13.3l16-272.5c0.4-7.3,6.7-13.3,14-13.3h128c7.3,0,12.9,6,12.5,13.3
		l-16,272.5C302.1,300,295.8,306,288.5,306z"/>
	<path class="st15" d="M283.4,294.4H164c-4.5,0-8-3.7-7.7-8.2l6.7-113.6c0.3-4.5,4.2-8.2,8.7-8.2H291c4.5,0,8,3.7,7.7,8.2L292,286.2
		C291.8,290.7,287.9,294.4,283.4,294.4z"/>
	<path class="st15" d="M256.9,25.8h-34.8c-1.6,0-2.9-1.3-2.8-2.9l0,0c0.1-1.6,1.5-2.9,3.1-2.9h34.8c1.6,0,2.9,1.3,2.8,2.9l0,0
		C259.9,24.4,258.5,25.8,256.9,25.8z"/>
	
		<ellipse transform="matrix(0.7174 -0.6967 0.6967 0.7174 -2.4019 191.8136)" class="st15" cx="235.2" cy="98.9" rx="54.1" ry="51"/>
	<path class="st9" d="M198.4,133.7c-8.8-9.4-13.3-21.8-12.5-35l1,0.1c-0.8,12.9,3.6,25.1,12.2,34.2L198.4,133.7z"/>
	<path class="st9" d="M284.4,99.1l-1-0.1c0.3-4.5-0.1-8.9-1-13.1l1-0.2C284.3,90,284.7,94.5,284.4,99.1z"/>
	<path class="st9" d="M279.5,77.2c-2-4.6-4.8-8.7-8.3-12.4c-4.8-5.1-10.5-8.9-17-11.3l0.3-0.9c6.7,2.5,12.5,6.3,17.4,11.5
		c3.5,3.8,6.4,8,8.5,12.7L279.5,77.2z"/>
	
		<ellipse transform="matrix(0.7174 -0.6967 0.6967 0.7174 -2.4012 191.8129)" class="st9" cx="235.2" cy="98.9" rx="47.1" ry="44.4"/>
	<g>
		<path class="st7" d="M230.1,105.1L230.1,105.1c2.2-0.5,3.3-2.4,3.7-4.5c0-0.2,0.1-0.4,0.1-0.7c0-0.1,0-0.1,0-0.2
			c0.1-0.9,0.2-1.8,0.2-2.7c-4.2-0.5-7.7-3.7-7.9-8.5c-0.1-3.7,0.7-8.4,2.7-12.2c-0.4,0.1-0.9,0.2-1.4,0.6c-0.1,0.1-0.2,0.1-0.3,0.1
			c-0.1,0-0.2-0.1-0.2-0.1c-0.1-0.2-0.1-0.4,0.1-0.5c0.8-0.6,1.6-0.7,2.2-0.7c0.1-0.2,0.3-0.5,0.4-0.7c-0.6,0-1.3,0-1.9,0
			c0.7-4.6,9.5-8.5,15.6-5c2.7,0.5,7.2,4.4,7.2,4.4s0.2,3.3-0.2,7.4l0,0l0,0c-0.4,4.2-1.4,9.1-3.8,11.8c0.6-1.4,0.8-2.9,0.6-4.4
			c-0.6,0.6-1.4,1-2.1,1.2c-0.3,0.6-0.6,1.2-1,1.8c-0.9,4.3-1.6,10-0.2,13.3c1.3,0.1,2.5,0.2,3.7,0.3c0.1,0,0.2,0,0.3,0
			c0.8-0.5,1.5-1,2.3-1.5c9-7-0.6-15.2,1.7-22.7c2.3-7.5,0.3-10.4-5.8-10.6c2.6-4.1-13.6-10.6-20.8,2.1c-6.4,11.5-8.5,17.2-6.2,26.1
			c0.7,2.8,2.8,5.2,5.5,6.9c0.4-0.1,0.9-0.2,1.4-0.3C227.5,105.3,228.8,105.2,230.1,105.1z"/>
		<path class="st8" d="M216.1,122.7c-0.4-0.7-0.8-1.4-1-2c-0.7,2-1.3,4-2,6c-0.6,1.8-1.2,3.6-1.8,5.3l-0.9,2.4l-0.4,1
			c-0.1,0.3,0,0.1,0,0.2c-0.2,0.3-0.8,0.8-1.4,1.4c-0.1,0.1-0.3,0.2-0.4,0.3c2.7,1.8,5.7,3.4,8.9,4.6c0.1-4.6,0.6-9.3,1.2-10.6
			C214.7,128.8,215.2,126,216.1,122.7z"/>
		<path class="st7" d="M219.6,109.2c-0.1,0.1-0.2,0.2-0.3,0.3C219.4,109.4,219.5,109.3,219.6,109.2L219.6,109.2z"/>
		<path class="st7" d="M217.3,115.9c0-2.3,0.7-4.4,1.9-6.2c-2.5,3.5-4.7,9.6-4.7,9.6s0.2,0.5,0.6,1.4c0.3,0.6,0.6,1.2,1,2
			C216.6,120.7,217.3,118.4,217.3,115.9z"/>
		<path class="st7" d="M252.2,130.4c-1.1-1.5-2.2-3.4-3.2-5.5c-0.3,0.2-0.6,0.3-0.9,0.5c-3-3.2-5.6-5.7-5.6-5.7
			c-3.7-7.8-1.4-12.2,5.7-14c1.1,0.2,2.1,0.7,3.1,1.2c-0.9-0.6-2-1.1-3.1-1.3c-0.1,0-0.2,0-0.3,0c-1.2-0.1-2.4-0.3-3.7-0.3
			c0.3,0.7-6.1,10-10.2,11.5c-1.7-4.2-6.3-4.4-6.3-4.4s-4.3-0.9-5.7,1.8c0.9-5.6,6.3-8.6,8.1-9c-1.3,0.1-2.6,0.2-3.9,0.4
			c-0.5,0.1-0.9,0.2-1.4,0.3c-2.1,0.6-3.9,1.8-5.2,3.4c-0.1,0.1-0.2,0.2-0.3,0.3c0,0.1-0.1,0.1-0.1,0.2c-1.2,1.7-1.9,3.9-1.9,6.2
			c0,2.5-0.7,4.8-1.2,6.8c-0.9,3.4-1.4,6.1,2.1,8.6c-0.6,1.3-1.2,6-1.2,10.6c4.8,1.8,10,2.8,15.5,2.8c6.9,0,13.6-1.6,19.7-4.3
			c-0.1-3.2-0.2-6.9,0.1-11.2l0,0C252.2,129.6,252.2,130,252.2,130.4z"/>
		<path class="st11" d="M227.7,112.2c0,0,4.6,0.3,6.3,4.4c4-1.5,10.4-10.7,10.2-11.5C244.1,105.2,235,109.6,227.7,112.2z"/>
		<path class="st11" d="M230.1,105.1L230.1,105.1c-1.8,0.4-7.2,3.4-8.1,9c1.3-2.7,5.7-1.8,5.7-1.8
			C226.3,107,230.1,105.1,230.1,105.1z"/>
		<path class="st8" d="M233.9,99.9c0-0.1,0-0.1,0-0.2C234,99.8,233.9,99.8,233.9,99.9z"/>
		<path class="st8" d="M244.3,91.9c-0.8,1.2-1.8,2.2-3.2,3.2c-0.6,0.4-1.1,0.7-1.7,1c-1.3,2.2-3.6,3.8-5.6,4.6c0-0.1,0-0.1,0-0.2
			c-0.5,2.1-1.5,4-3.7,4.5c0,0-3.8,1.9-2.5,7.2c7.3-2.6,16.5-7,16.5-7C242.7,101.9,243.3,96.2,244.3,91.9z"/>
		<path class="st7" d="M233.8,100.6c0-0.2,0.1-0.4,0.1-0.7C233.9,100.1,233.9,100.3,233.8,100.6z"/>
		<path class="st10" d="M233.8,100.6c0-0.2,0.1-0.4,0.1-0.7C233.9,100.1,233.9,100.3,233.8,100.6z"/>
		<path class="st7" d="M234.2,97c0,0.9-0.1,1.8-0.2,2.7C234.1,98.8,234.2,97.9,234.2,97L234.2,97z"/>
		<path class="st10" d="M234.2,97c0,0.9-0.1,1.8-0.2,2.7C234.1,98.8,234.2,97.9,234.2,97L234.2,97z"/>
		<path class="st8" d="M239.4,96.1c-1.7,0.8-3.5,1.1-5.2,0.9c0,0.9-0.1,1.8-0.2,2.7c0,0.1,0,0.1,0,0.2c0,0.2-0.1,0.4-0.1,0.7
			c0,0.1,0,0.1,0,0.2C235.8,99.9,238.1,98.3,239.4,96.1z"/>
		<path class="st10" d="M239.4,96.1c-1.7,0.8-3.5,1.1-5.2,0.9c0,0.9-0.1,1.8-0.2,2.7c0,0.1,0,0.1,0,0.2c0,0.2-0.1,0.4-0.1,0.7
			c0,0.1,0,0.1,0,0.2C235.8,99.9,238.1,98.3,239.4,96.1z"/>
		<path class="st8" d="M239.4,96.1c0.6-0.3,1.1-0.6,1.7-1c1.4-1,2.4-2,3.2-3.2c0.4-0.5,0.7-1.1,1-1.8c-0.2,0-0.4,0.1-0.6,0.1
			c-1.7,0.2-2.1-1.7-1.4-3.4c0.2-0.5,0.6-1.1,1-1.6c-0.5-1.5-0.3-3,0.3-4.3c-1.5-3.1-3.1-6-3.3-8.1c-4.1,1.3-8,1.8-11.5,1.9
			c-0.2,0.2-0.3,0.5-0.4,0.7c0.5,0,0.9,0.1,1,0.1c0.2,0.1,0.3,0.3,0.2,0.4s-0.3,0.3-0.4,0.2c0,0-0.5-0.2-1.1-0.1
			c-2,3.8-2.8,8.6-2.7,12.2c0.2,4.8,3.7,8.1,7.9,8.5l0,0C235.8,97.2,237.6,96.9,239.4,96.1z M237.1,76.5c0.1,0,1.7,0.2,2.5,2
			c0.1,0.2,0,0.4-0.2,0.5c-0.1,0-0.2,0-0.3,0c-0.1,0-0.2-0.1-0.2-0.2c-0.7-1.4-1.9-1.6-1.9-1.6c-0.2,0-0.3-0.2-0.3-0.4
			C236.8,76.6,236.9,76.4,237.1,76.5z M236.8,81.4L236.8,81.4c0.3,0.2,0.4,0.6,0.3,1.1c-0.1,0.6-0.5,1-0.9,0.9s-0.6-0.6-0.5-1.2
			c0.1-0.3,0.2-0.6,0.4-0.8c-0.4-0.2-0.7-0.8-0.7-0.8L236.8,81.4z M228.6,81c0.1-0.3,0.2-0.6,0.4-0.8c-0.4-0.2-0.7-0.8-0.7-0.8
			l1.3,0.7l0,0c0.3,0.2,0.4,0.6,0.3,1.1c-0.1,0.6-0.5,1-0.9,0.9C228.7,82.1,228.5,81.6,228.6,81z M230.9,85.8c0,0-1.4,0.1-2-0.8
			c1.3-1,2.8-3.3,2.8-3.3L230.9,85.8z M232.8,88.5c-0.1,0-0.2-0.1-0.1-0.2c0-0.1,0.1-0.2,0.2-0.1c2.5,0.5,4.1-1.1,4.1-1.1
			c0.1-0.1,0.2-0.1,0.2,0c0.1,0.1,0.1,0.2,0,0.2c-0.1,0.1-1.3,1.3-3.4,1.3C233.5,88.6,233.2,88.6,232.8,88.5z"/>
		<path class="st7" d="M250.5,81.6L250.5,81.6L250.5,81.6z"/>
		<path class="st7" d="M246,84.1c-0.4-1-0.9-2.1-1.4-3.1c-0.6,1.3-0.8,2.9-0.3,4.3C244.8,84.7,245.4,84.3,246,84.1z"/>
		<path class="st7" d="M236.1,81.5c-0.2,0.2-0.4,0.4-0.4,0.8c-0.1,0.6,0.1,1.1,0.5,1.2s0.8-0.3,0.9-0.9c0.1-0.5-0.1-0.9-0.3-1.1
			C236.5,81.6,236.3,81.6,236.1,81.5z"/>
		<path class="st7" d="M229.9,81.2c0.1-0.5-0.1-0.9-0.3-1.1c-0.2,0.1-0.4,0.2-0.6,0.1c-0.2,0.2-0.4,0.4-0.4,0.8
			c-0.1,0.6,0.1,1.1,0.5,1.2C229.4,82.2,229.8,81.8,229.9,81.2z"/>
		<path class="st7" d="M229.6,80.1L229.6,80.1l-1.3-0.7c0,0,0.3,0.6,0.7,0.8C229.2,80.3,229.4,80.3,229.6,80.1z"/>
		<path class="st12" d="M228.9,85.1c0.6,0.9,2,0.8,2,0.8l0.8-4.1C231.7,81.7,230.2,84.1,228.9,85.1z"/>
		<path class="st7" d="M237.2,87.1c-0.1-0.1-0.2-0.1-0.2,0c0,0-1.5,1.6-4.1,1.1c-0.1,0-0.2,0-0.2,0.1s0,0.2,0.1,0.2
			c0.3,0.1,0.7,0.1,1,0.1c2.1,0,3.4-1.2,3.4-1.3C237.3,87.3,237.3,87.2,237.2,87.1z"/>
		<path class="st8" d="M246,84.1c-0.6,0.2-1.2,0.7-1.7,1.3c-0.4,0.5-0.8,1-1,1.6c-0.8,1.7-0.3,3.6,1.4,3.4c0.2,0,0.4-0.1,0.6-0.1
			c0.7-0.2,1.4-0.6,2.1-1.2C247.2,87.4,246.7,85.7,246,84.1z"/>
		<path class="st7" d="M241.6,71.4c0.1-1.4,0.9-1.8,2-1.6c-6.1-3.5-14.9,0.3-15.6,5c0.6,0,1.2,0,1.9,0c3.5-0.1,7.5-0.6,11.5-1.9
			C241.3,72.3,241.4,71.8,241.6,71.4z"/>
		<path class="st7" d="M241.6,71.4c-0.2,0.4-0.2,0.9-0.2,1.5c0.1,2.1,1.8,5,3.3,8.1c0.5,1,1,2,1.4,3.1c0.7,1.6,1.2,3.3,1.3,4.9
			c0.1,1.5,0,3-0.6,4.4c2.4-2.7,3.4-7.6,3.8-11.8l0,0c0.4-4,0.2-7.4,0.2-7.4s-4.5-3.9-7.2-4.4C242.4,69.6,241.6,70,241.6,71.4z"/>
		<path class="st7" d="M237,77.1c0,0,1.3,0.2,1.9,1.6c0,0.1,0.1,0.2,0.2,0.2s0.2,0,0.3,0c0.2-0.1,0.2-0.3,0.2-0.5
			c-0.8-1.7-2.4-2-2.5-2c-0.2,0-0.4,0.1-0.4,0.3S236.8,77.1,237,77.1z"/>
		<path class="st7" d="M230.1,76.3c0.2,0.1,0.4,0,0.4-0.2s0-0.4-0.2-0.4c0,0-0.4-0.1-1-0.1s-1.4,0.1-2.2,0.7
			c-0.2,0.1-0.2,0.3-0.1,0.5c0.1,0.1,0.1,0.1,0.2,0.1s0.2,0,0.3-0.1c0.5-0.4,1-0.5,1.4-0.6C229.6,76.1,230.1,76.3,230.1,76.3z"/>
		<path class="st7" d="M236.1,81.5c0.2,0.1,0.4,0.1,0.6-0.1l0,0l-1.3-0.7C235.5,80.7,235.7,81.3,236.1,81.5z"/>
		<path class="st7" d="M252.2,130.4c0-0.4,0.1-0.8,0.1-1.3c-0.6-0.9-1.1-1.8-1.7-2.7c-0.4-0.6-0.8-1.1-1.2-1.7
			c-0.1,0.1-0.2,0.1-0.4,0.2C250,127,251.1,128.9,252.2,130.4z"/>
		<path class="st10" d="M252.2,130.4c0-0.4,0.1-0.8,0.1-1.3c-0.6-0.9-1.1-1.8-1.7-2.7c-0.4-0.6-0.8-1.1-1.2-1.7
			c-0.1,0.1-0.2,0.1-0.4,0.2C250,127,251.1,128.9,252.2,130.4z"/>
		<path class="st8" d="M255.1,138.7v0.2c4-2.2,7.7-4.9,10.9-8c-0.6-1.7-1.2-3.2-1.9-4.7c-1-2.2-2.1-4.2-3.2-6.1
			c-1-1.7-2.1-3.4-3.1-5c-1,2.1-3.8,7.1-8.4,9.7c0.4,0.6,0.8,1.1,1.2,1.7c0.6,0.9,1.2,1.8,1.7,2.7l0,0c0.5,0.8,1,1.6,1.4,2.4
			c0.8,1.4,1.5,2.7,2,4l-0.1,0.7C255.5,137,255.3,137.8,255.1,138.7z"/>
		<path class="st7" d="M242.5,119.7c0,0,2.6,2.6,5.6,5.7c0.3-0.1,0.6-0.3,0.9-0.5c0.1-0.1,0.2-0.1,0.4-0.2c4.5-2.6,7.3-7.6,8.4-9.7
			c0.3-0.6,0.4-1,0.4-1s-2.9-4.8-6.9-7.2c-1-0.6-2-1-3.1-1.2C241.1,107.4,238.8,111.9,242.5,119.7z"/>
	</g>
	<path class="st9" d="M290.5,19.4h14.1c0.8,0,1.5-0.6,1.5-1.4l0,0c0-0.8-0.6-1.4-1.3-1.4h-14.1c-0.8,0-1.5,0.6-1.5,1.4l0,0
		C289.1,18.7,289.7,19.4,290.5,19.4z"/>
	<path class="st9" d="M290.2,24.3h14.1c0.8,0,1.5-0.6,1.5-1.4l0,0c0-0.8-0.6-1.4-1.3-1.4h-14.1c-0.8,0-1.5,0.6-1.5,1.4l0,0
		C288.8,23.6,289.4,24.3,290.2,24.3z"/>
	<path class="st9" d="M176.2,24.3h14.1c0.8,0,1.5-0.6,1.5-1.4l0,0c0-0.8-0.6-1.4-1.3-1.4h-14.1c-0.8,0-1.5,0.6-1.5,1.4l0,0
		C174.8,23.6,175.4,24.3,176.2,24.3z"/>
	<path class="st9" d="M289.9,29.2H304c0.8,0,1.5-0.6,1.5-1.4l0,0c0-0.8-0.6-1.4-1.3-1.4H290c-0.8,0-1.5,0.6-1.5,1.4l0,0
		C288.5,28.5,289.1,29.2,289.9,29.2z"/>
	<path class="st11" d="M271.4,208.6h-85.2c-6.8,0-12-5.6-11.6-12.3l0,0c0.4-6.8,6.3-12.3,13.1-12.3h85.2c6.8,0,12,5.6,11.6,12.3l0,0
		C284,203,278.2,208.6,271.4,208.6z"/>
	<path class="st11" d="M269.4,241.7h-85.2c-6.8,0-12-5.6-11.6-12.3l0,0c0.4-6.8,6.3-12.3,13.1-12.3h85.2c6.8,0,12,5.6,11.6,12.3l0,0
		C282.1,236.2,276.2,241.7,269.4,241.7z"/>
	<path class="st11" d="M267.5,274.9h-85.2c-6.8,0-12-5.6-11.6-12.3l0,0c0.4-6.8,6.3-12.3,13.1-12.3H269c6.8,0,12,5.6,11.6,12.3l0,0
		C280.1,269.3,274.3,274.9,267.5,274.9z"/>
	
		<ellipse transform="matrix(0.7174 -0.6967 0.6967 0.7174 -83.4647 186.7116)" class="st9" cx="188.4" cy="196.2" rx="6.5" ry="6.2"/>
	<path class="st9" d="M187.7,223.4l0.8,3.2c0.1,0.4,0.4,0.6,0.8,0.6h3.3c0.9,0,1.1,1.1,0.4,1.6l-2.8,2c-0.3,0.2-0.5,0.6-0.4,1
		l0.8,3.2c0.2,0.8-0.8,1.5-1.4,1l-2.6-2c-0.3-0.2-0.7-0.2-1,0l-2.8,2c-0.7,0.5-1.6-0.2-1.3-1l1.2-3.2c0.1-0.4,0-0.8-0.3-1l-2.6-2
		c-0.7-0.5-0.2-1.6,0.6-1.6h3.3c0.4,0,0.7-0.2,0.9-0.6l1.2-3.2C186.3,222.6,187.5,222.6,187.7,223.4z"/>
	<path class="st9" d="M190,259.2l-0.5,8.9c0,0.8-0.7,1.4-1.5,1.4h-7.8c-0.8,0-1.3-0.6-1.3-1.4l0.6-11.1c0-0.8,0.7-1.4,1.5-1.4h5.6
		L190,259.2z"/>
	<path class="st11" d="M186.7,255.6l3.4,3.6h-2.2c-0.8,0-1.3-0.6-1.3-1.4L186.7,255.6 M185.8,253.2l-0.1,2.4l-0.1,2.2
		c0,0.7,0.2,1.3,0.6,1.7s1,0.7,1.7,0.7h2.2h2.4l-1.6-1.7l-3.4-3.6L185.8,253.2L185.8,253.2z"/>
	<path class="st16" d="M268.5,194.9h-63.8c-1.1,0-2-0.9-1.9-2l0,0c0.1-1.1,1-2,2.1-2h63.8c1.1,0,2,0.9,1.9,2l0,0
		C270.6,194,269.6,194.9,268.5,194.9z"/>
	<path class="st16" d="M256.4,201.6h-52.1c-1.1,0-2-0.9-1.9-2l0,0c0.1-1.1,1-2,2.1-2h52.1c1.1,0,2,0.9,1.9,2l0,0
		C258.5,200.7,257.5,201.6,256.4,201.6z"/>
	<path class="st16" d="M266.4,230.7h-17.6c-1.1,0-2.1,0.9-2.1,2l0,0c-0.1,1.1,0.8,2,1.9,2h17.6c1.1,0,2.1-0.9,2.1-2l0,0
		C268.4,231.6,267.5,230.7,266.4,230.7z"/>
	<path class="st16" d="M238.5,230.7h-35.9c-1.1,0-2.1,0.9-2.1,2l0,0c-0.1,1.1,0.8,2,1.9,2h35.9c1.1,0,2.1-0.9,2.1-2l0,0
		C240.5,231.6,239.6,230.7,238.5,230.7z"/>
	<path class="st16" d="M255.1,224.1H203c-1.1,0-2.1,0.9-2.1,2l0,0c-0.1,1.1,0.8,2,1.9,2h52.1c1.1,0,2.1-0.9,2.1-2l0,0
		C257,225,256.2,224.1,255.1,224.1z"/>
	<path class="st16" d="M264.5,263.9h-63.8c-1.1,0-2.1,0.9-2.1,2l0,0c-0.1,1.1,0.8,2,1.9,2h63.8c1.1,0,2.1-0.9,2.1-2l0,0
		C266.4,264.8,265.6,263.9,264.5,263.9z"/>
	<path class="st16" d="M253.1,257.2H201c-1.1,0-2.1,0.9-2.1,2l0,0c-0.1,1.1,0.8,2,1.9,2h52.1c1.1,0,2.1-0.9,2.1-2l0,0
		C255.1,258.1,254.2,257.2,253.1,257.2z"/>
</g>
</svg>
