<?xml version="1.0" encoding="utf-8"?>
<!-- Generator: Adobe Illustrator 23.0.3, SVG Export Plug-In . SVG Version: 6.00 Build 0)  -->
<svg version="1.1" xmlns="http://www.w3.org/2000/svg" xmlns:xlink="http://www.w3.org/1999/xlink" x="0px" y="0px"
	 viewBox="0 0 500 364.5" style="enable-background:new 0 0 500 364.5;" xml:space="preserve">
<style type="text/css">
	.st0{fill:#F0F0F0;}
	.st1{fill:#F5F5F5;}
	.st2{fill:#E0E0E0;}
	.st3{display:none;}
	.st4{display:inline;}
	.st5{fill:#407BFF;}
	.st6{opacity:0.9;fill:#FFFFFF;}
	.st7{fill:#263238;}
	.st8{fill:#FFC3BD;}
	.st9{fill:#DE1212;}
	.st10{opacity:0.2;}
	.st11{fill:#FFFFFF;}
	.st12{fill:#ED847E;}
	.st13{fill:#DD4A4A;}
	.st14{opacity:0.8;fill:#DE1212;}
	.st15{opacity:0.1;fill:#DE1212;}
	.st16{opacity:0.2;fill:#DE1212;}
</style>
<g id="Background_Complete">
	<g>
		<g>
			<path class="st0" d="M146.9,227.6H75.7v89h71.2c6.9,0,12.5-5.6,12.5-12.5v-64C159.4,233.2,153.7,227.6,146.9,227.6z"/>
			<path class="st1" d="M76.2,227.6h-1.2c-6.9,0-12.5,5.6-12.5,12.5v64c0,6.9,5.6,12.5,12.5,12.5h1.2c6.9,0,12.5-5.6,12.5-12.5v-64
				C88.8,233.2,83.1,227.6,76.2,227.6z"/>
		</g>
		
			<rect x="85.2" y="260.4" transform="matrix(-1 -1.224647e-16 1.224647e-16 -1 263.3129 576.9717)" class="st0" width="92.9" height="56.2"/>
		<path class="st2" d="M77.6,319.4H245c1.4,0,2.6-1.1,2.6-2.6v-0.2H146.9L75,316.8C75,318.2,76.1,319.4,77.6,319.4z"/>
		<path class="st2" d="M150.9,190.6h86.5c9.6,0,16.8,7.8,15.9,17.5l-5.7,65H126.2l5.7-65C132.8,198.5,141.3,190.6,150.9,190.6z"/>
		<path class="st1" d="M137.3,190.6h88.1c9.2,0,16,7.4,15.2,16.6l-5.8,65.8H113.4l5.8-65.8C120,198.1,128.1,190.6,137.3,190.6z"/>
		<path class="st2" d="M92.6,255.3h73.6c4.4,0,7.9,3.5,7.9,7.9v7.1c0,4.4-3.5,7.9-7.9,7.9H92.6c-6.3,0-11.4-5.1-11.4-11.4l0,0
			C81.2,260.4,86.3,255.3,92.6,255.3z"/>
		<path class="st0" d="M249.7,227.6h-71.2v89h71.2c6.9,0,12.5-5.6,12.5-12.5v-64C262.3,233.2,256.6,227.6,249.7,227.6z"/>
		<path class="st1" d="M179.1,227.6h-1.2c-6.9,0-12.5,5.6-12.5,12.5v64c0,6.9,5.6,12.5,12.5,12.5h1.2c6.9,0,12.5-5.6,12.5-12.5v-64
			C191.6,233.2,186,227.6,179.1,227.6z"/>
	</g>
</g>
<g id="Background_Simple" class="st3">
	<g class="st4">
		<path class="st5" d="M155.8,79.7c28.2-4.3,53-22.4,72.5-45.6C313-84.5,487.6-0.3,388.5,146.4c-48,75.8-112.9,90-179.7,94.7
			C74.9,257.3,59.5,142.8,72.5,109.4C86,76.6,128.7,84.7,155.8,79.7z"/>
		<path class="st6" d="M155.8,79.7c28.2-4.3,53-22.4,72.5-45.6C313-84.5,487.6-0.3,388.5,146.4c-48,75.8-112.9,90-179.7,94.7
			C74.9,257.3,59.5,142.8,72.5,109.4C86,76.6,128.7,84.7,155.8,79.7z"/>
	</g>
</g>
<g id="Shadow_1_">
</g>
<g id="Character_1_">
	<path class="st7" d="M166,52.6c2.5-5.8-19.8-11-26.6,6.8c-6.1,16.1-16.3,20.3-11.5,31.4c5.2,12.1,34.4,13.5,47.1,0.1
		c10.3-10.9-0.9-15.4,0.6-25.7C177.1,55.1,174,51.7,166,52.6z"/>
	<path class="st7" d="M125.3,87.2c-1.2-6.3,1.2-8.9,4.1-12.2c2.7-3,6.1-6.7,7.9-14.8c1.5-6.5,5.9-10.8,12.5-12
		c6.6-1.2,13.6,0.9,15.4,3.7c0.6,0.9,0.6,1.9,0.1,2.7l-0.8-0.5c0.3-0.5,0.3-1-0.1-1.6c-1.6-2.4-8.3-4.4-14.4-3.3
		c-4.4,0.8-9.9,3.4-11.7,11.2c-1.9,8.3-5.4,12.1-8.1,15.2c-2.9,3.2-5,5.5-3.9,11.3L125.3,87.2z"/>
	<path class="st8" d="M111.6,82.5l-0.6-2c-0.4-1.4-1.2-2.6-2.2-3.5l-2-1.8c-1.3-1.2-3.3-1.3-4.7-0.2l-2.1,1.6
		c-1.6,1.2-2,3.6-0.7,5.2l1.4,1.8c0,0,3.2,5.5,7.9,7.4l1.1-0.9c0,0,0,0,0.1,0C111.7,88,112.4,85.1,111.6,82.5z"/>
	<path class="st8" d="M150.5,117.2l-0.6,0.5l-0.5,0.4l-1,0.7c-0.7,0.4-1.3,0.9-2,1.2c-1.4,0.8-2.8,1.5-4.2,2.1
		c-2.9,1.3-6,2.2-9.2,2.8c-3.3,0.6-6.7,0.6-10.2,0.1c-1.7-0.3-3.4-0.7-5.1-1.3c-0.4-0.1-0.8-0.3-1.2-0.5l-0.6-0.3l-0.3-0.1l-0.3-0.1
		l-0.4-0.2c-1.1-0.5-1.8-1.2-2.4-1.7c-0.6-0.6-1-1.1-1.4-1.5c-1.4-1.9-2.1-3.5-2.7-5c-0.6-1.5-1.1-2.9-1.5-4.3
		c-0.8-2.8-1.4-5.5-1.8-8.2c-0.9-5.4-1.4-10.7-1.5-16.1c0-2.2,1.7-4.1,4-4.1c1.8,0,3.3,1.1,3.9,2.7l0,0.1c1.7,4.8,3.4,9.7,5.2,14.4
		c0.9,2.3,1.8,4.6,2.8,6.7c0.5,1.1,1,2.1,1.5,2.9c0.5,0.8,1.1,1.6,1.3,1.7c0,0,0,0-0.1-0.1c-0.1-0.1-0.3-0.3-0.8-0.6l-0.2-0.1
		c-0.1,0-0.2-0.1-0.1-0.1l0.2,0l0.3,0.1c0.2,0.1,0.4,0.1,0.6,0.1c0.8,0.2,1.7,0.2,2.6,0.3c1.7,0.1,3.5-0.1,5.4-0.6
		c1.8-0.5,3.7-1.1,5.6-2c0.9-0.4,1.8-0.9,2.7-1.4c0.5-0.2,0.9-0.5,1.3-0.8l1-0.6l0.8-0.5c3.8-2.3,8.7-1.2,11.1,2.6
		C154.6,110.1,153.7,114.7,150.5,117.2z"/>
	<path class="st9" d="M168,348.9c6.3-2.1,11.7-6.4,10.6-13.9c-0.5-3.2,9.9-4.5,9.9-4.5c-1.2,10.2,0.1,12,1.3,14.3
		c1.2,2.4,1.2,5.1-1,5.4c-2.6,0.3-3.1,0-6.3,0.4c-3.7,0.5-6.1,2.4-13.6,2.4C164.9,353.1,166,349.5,168,348.9z"/>
	<path class="st9" d="M187.3,239.6c0.7-51.2-4-79.2-4-79.2l-37.9,1.9c0,0,5.6,46.9,15.6,81.4c2.7,18.5,8.7,49.9,12.8,70.9
		c6.6-0.7,13.1-1.8,18.2-3.4C193.3,292.7,193.6,266,187.3,239.6z"/>
	<path class="st8" d="M188.1,335.5c0,0,1.5-9.7,2.5-24.3c-4.3,1.6-9.9,2.8-15.5,3.4c2.2,12.8,3.7,20.9,3.7,20.9
		C180.6,336.5,185.4,336.8,188.1,335.5z"/>
	<path class="st7" d="M171.6,308.5c0.3,1.8,1.3,6.2,2.2,7.7c0.1,0.2,0.3,0.3,0.5,0.3c7.1,0.9,14.1-0.5,17.1-1.8
		c0.2-0.1,0.3-0.2,0.3-0.4c0.8-2.1,1.1-6.6,1.2-8.5c0-0.4-0.4-0.8-0.8-0.7c-2.3,0.5-9.4,1.7-19.8,2.5
		C171.9,307.7,171.6,308.1,171.6,308.5z"/>
	<g>
		<path class="st7" d="M145.8,102.1c-5.6,1-14.2,5.7-14.2,5.7s-4.5,10.8,0.9,18.6c5.3,1.3,8,0.2,8,0.2L145.8,102.1z"/>
		<path class="st10" d="M132.5,126.4c5.3,1.3,8,0.2,8,0.2l-0.2-14.6C136.7,116.9,133.7,121.7,132.5,126.4z"/>
	</g>
	<path class="st10" d="M187,209.4c-4.2-10.4-8.8-18.9-10.5-26.7c-3,21.2-0.6,40.7,10.8,54.7C187.4,227,187.3,217.7,187,209.4z"/>
	<path class="st9" d="M245,290.7l-15.1,10.8c-12.3-16.1-30.9-40.7-35.3-51.4c-11.4-27.1-34.3-87-34.3-87l29.7-6.9
		c0,0,18.7,17.4,30.8,83.1C230.9,253.6,239.4,274.8,245,290.7z"/>
	<path class="st9" d="M244.1,341.7c3.8-7.4,3.8-15.5-0.3-21.9c-1.7-2.7,7.1-8.1,7.1-8.1c3.1,9.8,5.7,10.4,7.9,11.9
		c2.2,1.6,2.4,4.8,0.6,5.9c-2.2,1.3-3.1,2.2-5,4.7c-2.3,3-3.6,7.1-6.8,9.7C245.5,345.5,242.5,344.9,244.1,341.7z"/>
	<path class="st8" d="M252.7,316.1c0,0-2.6-9.2-7.7-22.9c-3.3,3.3-7.9,6.6-12.7,9.5c7.2,10.8,12.5,18.5,12.5,18.5
		C247.9,320.2,250.7,318.4,252.7,316.1z"/>
	<path class="st7" d="M226.6,298.6c1,1.5,3.7,5.1,5.1,6.1c0.2,0.1,0.4,0.2,0.6,0.1c6.8-2.1,12.7-6.3,14.8-8.7
		c0.1-0.1,0.2-0.3,0.2-0.5c-0.1-2.3-1.7-6.4-2.4-8.2c-0.2-0.4-0.7-0.6-1-0.3c-1.9,1.4-7.8,5.4-17,10.4
		C226.5,297.8,226.4,298.2,226.6,298.6z"/>
	<path class="st7" d="M137.3,117c1.4,8.8-3.9,15.7,4.2,19.8c-1.3,6.7,0.7,20.2,3.9,25.5c4.5,2.4,26.6-1.2,44.6-6.1
		c-0.3-7.7-6.6-22.8-4.8-48.1c0.4-5.8-4.3-10.8-10.2-10.5c-1.6,0.1-3.2,0.2-4.9,0.3c-6.6,0.6-11.9,1.1-17.6,2.4
		c-1.9,0.4-3.8,0.9-5.6,1.5C140.2,103.6,136.2,110.2,137.3,117z"/>
	<path class="st11" d="M150,110.3c0,0,5.6-2.1,8.6,3c4.9-2.8,11.9-14.5,11.4-15.4C161.7,100.1,150,110.3,150,110.3z"/>
	<path class="st11" d="M150,110.3c0,0-4.3-0.5-5.5,3.3c0-7.5,5.1-12.2,7.3-13.1C151,102.4,150,110.3,150,110.3z"/>
	<path class="st8" d="M167.8,78c-0.6,5.8-0.7,15.2,2.2,19.9c0,0-11,7.5-20,12.4c-2.8-6.6,1.8-9.8,1.8-9.8c4.3-1.6,4.3-7.1,3.7-11.3
		L167.8,78z"/>
	<path class="st10" d="M155.4,89.1l7-6.3c0.3,1,0.1,2.3-0.2,3.5c-1.1,3.5-4,6.2-6.6,7.7C155.8,92.4,155.7,90.7,155.4,89.1z"/>
	<path class="st8" d="M170.1,67.2c-0.9,9.5-1.1,13.5-6.1,18.2c-7.4,7.1-18.6,3.8-20.5-5.8c-1.7-8.6,0.2-22.7,9.4-26.1
		C162.2,50.1,171,57.7,170.1,67.2z"/>
	<path class="st7" d="M168,74.1c-3.4-3-2.8-8.3-0.3-10.8c2.5-2.5,6,2.7,6,2.7L168,74.1z"/>
	<path class="st7" d="M156.4,69.8c0,0.8-0.5,1.4-1,1.4c-0.5,0-0.9-0.7-0.9-1.4c0-0.8,0.5-1.4,1-1.4C156.1,68.4,156.4,69,156.4,69.8z
		"/>
	<path class="st7" d="M146.9,69.6c0,0.8-0.5,1.4-1,1.4c-0.5,0-0.9-0.7-0.9-1.4c0-0.8,0.5-1.4,1-1.4
		C146.5,68.1,146.9,68.8,146.9,69.6z"/>
	<path class="st7" d="M146.2,68.2l-1.8-0.6C144.4,67.6,145.3,69.1,146.2,68.2z"/>
	<path class="st12" d="M149.2,69.9c0,0-1.4,3.3-3,4.8c1,1,2.7,0.6,2.7,0.6L149.2,69.9z"/>
	<path class="st7" d="M153.3,78.4c-0.4,0.1-0.8,0.1-1.3,0.1c-0.1,0-0.2-0.1-0.2-0.2c0-0.1,0.1-0.2,0.2-0.2c3.4,0.1,5.1-2.2,5.1-2.2
		c0.1-0.1,0.2-0.1,0.3-0.1c0.1,0.1,0.1,0.2,0.1,0.3C157.5,76.1,156.1,78,153.3,78.4z"/>
	<path class="st8" d="M171.7,75.1c-0.9,1.8-2.4,2.9-3.8,3.3c-2.1,0.5-3.1-1.8-2.5-4.2c0.6-2.1,2.4-4.9,4.5-4.4
		C172,70.3,172.7,73.1,171.7,75.1z"/>
	<path class="st7" d="M165.2,53.6c-7.5,4.8-15.6,7.1-22.1,7.9C143,54.7,156.4,47.1,165.2,53.6z"/>
	<path class="st7" d="M160,54.5c-1.6,6,13.9,17,11,27.6c5.1-7.9,1.4-25.7,1.4-25.7S159.3,48.1,160,54.5z"/>
	<path class="st7" d="M158.4,64.7c-0.1,0-0.2-0.1-0.3-0.2c-1.1-1.7-2.8-1.7-2.8-1.7c-0.2,0-0.5-0.2-0.5-0.4c0-0.3,0.2-0.5,0.4-0.5
		c0.1,0,2.2,0,3.6,2.1c0.1,0.2,0.1,0.5-0.1,0.6C158.6,64.7,158.5,64.7,158.4,64.7z"/>
	<path class="st7" d="M142.7,64.4c-0.1,0-0.2,0-0.3-0.1c-0.2-0.2-0.2-0.5,0-0.6c1.8-1.8,3.8-1.4,3.9-1.4c0.2,0.1,0.4,0.3,0.4,0.5
		c-0.1,0.2-0.3,0.4-0.5,0.4c-0.1,0-1.7-0.3-3.1,1.1C142.9,64.3,142.8,64.4,142.7,64.4z"/>
	<path class="st7" d="M155.8,68.4l-1.8-0.6C153.9,67.8,154.8,69.3,155.8,68.4z"/>
	<path class="st10" d="M184.8,113c-0.2,5.9,0.1,11.2,0.5,16c-5-5.3-11.3-15.3-11.7-20.2L184.8,113z"/>
	<path class="st8" d="M217.5,94.2l1.1-6.4l9.9,3.8c0,0-2.3,5.9-6.5,8.5l-1.2-0.7C218.9,98.2,217.7,96.3,217.5,94.2z"/>
	<path class="st8" d="M224.8,84.3l3.2,1.8c1.5,0.8,2,2.6,1.2,4.1l-0.8,1.5l-9.9-3.8l2.3-2.8C221.9,83.9,223.5,83.6,224.8,84.3z"/>
	<path class="st8" d="M183.1,101.5l1.3,1.3l1.4,1.4c0.9,0.9,1.9,1.8,2.8,2.7c1.9,1.8,3.9,3.5,5.8,5c2,1.5,4,2.9,5.9,3.9
		c1.9,1,3.8,1.7,5.1,1.8l-2.7,0.5c-0.7,0.3-0.6,0.5-0.5,0.4c0.1-0.1,0.4-0.3,0.7-0.6c0.6-0.6,1.3-1.5,2-2.5c1.4-1.9,2.7-4.1,4-6.4
		c1.3-2.3,2.6-4.6,3.9-7l3.9-7.1l0-0.1c1.1-2,3.5-2.7,5.5-1.6c1.6,0.8,2.3,2.6,2.1,4.2c-0.5,2.9-1.1,5.6-1.8,8.4
		c-0.7,2.8-1.5,5.5-2.5,8.2c-1,2.7-2,5.5-3.5,8.3c-0.7,1.4-1.5,2.8-2.6,4.4c-0.6,0.8-1.2,1.6-2.1,2.4c-0.9,0.8-2,1.8-3.9,2.6
		c-0.7,0.3-1.5,0.5-2.2,0.5l-0.4,0c-4.4,0.1-8.2-1-11.5-2.4c-1.6-0.7-3.2-1.5-4.7-2.3c-1.5-0.8-2.8-1.7-4.2-2.6
		c-2.7-1.8-5.1-3.9-7.5-6c-1.2-1.1-2.3-2.1-3.4-3.3c-0.5-0.6-1.1-1.1-1.6-1.7c-0.5-0.6-1-1.1-1.6-1.9c-2.9-3.4-2.5-8.5,0.9-11.4
		c3.3-2.8,8.1-2.5,11,0.5L183.1,101.5z"/>
	<path class="st7" d="M175.3,97.6c7.3,0.2,14.6,9,14.6,9s-2.8,11.6-10.9,16.7c-4.5-3.5-8.3-6.3-8.3-6.3
		C164.4,107.6,166.5,101.3,175.3,97.6z"/>
	<path class="st13" d="M143.9,161.6c0.5,3.1,1.2,5.6,1.4,6.3c0,0.2,0.1,0.3,0.3,0.4c1.1,0.6,6,3,14.9,2.5c10.1-0.5,24.7-6,32.3-11.8
		c0.2-0.2,0.3-0.5,0.2-0.7c-0.6-1.5-1.6-3.1-2.1-3.8c-0.2-0.2-0.4-0.3-0.7-0.3c-3.3,1-23.9,6.9-45.7,6.7
		C144.1,160.9,143.8,161.2,143.9,161.6z"/>
</g>
<g id="Profile">
	<path class="st5" d="M344.3,323.4H212.6c-10.4,0-18.4-8.5-17.8-18.9l16.1-273.7c0.6-10.4,9.6-18.9,20-18.9h131.7
		c10.4,0,18.4,8.5,17.8,18.9l-16.1,273.7C363.6,314.9,354.6,323.4,344.3,323.4z"/>
	<path class="st14" d="M344.3,323.4H212.6c-10.4,0-18.4-8.5-17.8-18.9l16.1-273.7c0.6-10.4,9.6-18.9,20-18.9h131.7
		c10.4,0,18.4,8.5,17.8,18.9l-16.1,273.7C363.6,314.9,354.6,323.4,344.3,323.4z"/>
	<path class="st11" d="M343.5,317.9h-128c-7.3,0-12.9-6-12.5-13.3l16-272.5c0.4-7.3,6.7-13.3,14-13.3h128c7.3,0,12.9,6,12.5,13.3
		l-16,272.5C357.1,311.9,350.8,317.9,343.5,317.9z"/>
	<path class="st15" d="M338.4,306.3H219c-4.5,0-8-3.7-7.7-8.2l6.7-113.6c0.3-4.5,4.2-8.2,8.7-8.2H346c4.5,0,8,3.7,7.7,8.2
		l-6.7,113.6C346.8,302.6,342.9,306.3,338.4,306.3z"/>
	<path class="st15" d="M311.9,37.7h-34.8c-1.6,0-2.9-1.3-2.8-2.9l0,0c0.1-1.6,1.5-2.9,3.1-2.9h34.8c1.6,0,2.9,1.3,2.8,2.9l0,0
		C314.9,36.3,313.5,37.7,311.9,37.7z"/>
	
		<ellipse transform="matrix(0.7174 -0.6967 0.6967 0.7174 4.8339 233.4616)" class="st15" cx="290.2" cy="110.8" rx="54.1" ry="51"/>
	<path class="st9" d="M253.4,145.6c-8.8-9.4-13.3-21.8-12.5-35l1,0.1c-0.8,12.9,3.6,25.1,12.2,34.2L253.4,145.6z"/>
	<path class="st9" d="M339.4,111l-1-0.1c0.3-4.5-0.1-8.9-1-13.1l1-0.2C339.3,101.9,339.7,106.4,339.4,111z"/>
	<path class="st9" d="M334.5,89.1c-2-4.6-4.8-8.7-8.3-12.4c-4.8-5.1-10.5-8.9-17-11.3l0.3-0.9c6.7,2.5,12.5,6.3,17.4,11.5
		c3.5,3.8,6.4,8,8.5,12.7L334.5,89.1z"/>
	
		<ellipse transform="matrix(0.7174 -0.6967 0.6967 0.7174 4.8334 233.4605)" class="st9" cx="290.2" cy="110.8" rx="47.1" ry="44.4"/>
	<g>
		<path class="st7" d="M285.1,117C285.1,117,285.1,117,285.1,117c2.2-0.5,3.3-2.4,3.7-4.5c0-0.2,0.1-0.4,0.1-0.7c0-0.1,0-0.1,0-0.2
			c0.1-0.9,0.2-1.8,0.2-2.7c-4.2-0.5-7.7-3.7-7.9-8.5c-0.1-3.7,0.7-8.4,2.7-12.2c-0.4,0.1-0.9,0.2-1.4,0.6c-0.1,0.1-0.2,0.1-0.3,0.1
			c-0.1,0-0.2-0.1-0.2-0.1c-0.1-0.2-0.1-0.4,0.1-0.5c0.8-0.6,1.6-0.7,2.2-0.7c0.1-0.2,0.3-0.5,0.4-0.7c-0.6,0-1.3,0-1.9,0
			c0.7-4.6,9.5-8.5,15.6-5c2.7,0.5,7.2,4.4,7.2,4.4s0.2,3.3-0.2,7.4v0l0,0c-0.4,4.2-1.4,9.1-3.8,11.8c0.6-1.4,0.8-2.9,0.6-4.4
			c-0.6,0.6-1.4,1-2.1,1.2c-0.3,0.6-0.6,1.2-1,1.8c-0.9,4.3-1.6,10-0.2,13.3c1.3,0.1,2.5,0.2,3.7,0.3c0.1,0,0.2,0,0.3,0
			c0.8-0.5,1.5-1,2.3-1.5c9-7-0.6-15.2,1.7-22.7c2.3-7.5,0.3-10.4-5.8-10.6c2.6-4.1-13.6-10.6-20.8,2.1c-6.4,11.5-8.5,17.2-6.2,26.1
			c0.7,2.8,2.8,5.2,5.5,6.9c0.4-0.1,0.9-0.2,1.4-0.3C282.5,117.2,283.8,117.1,285.1,117z"/>
		<path class="st8" d="M271.1,134.6c-0.4-0.7-0.8-1.4-1-2c-0.7,2-1.3,4-2,6c-0.6,1.8-1.2,3.6-1.8,5.3l-0.9,2.4l-0.4,1
			c-0.1,0.3,0,0.1,0,0.2c-0.2,0.3-0.8,0.8-1.4,1.4c-0.1,0.1-0.3,0.2-0.4,0.3c2.7,1.8,5.7,3.4,8.9,4.6c0.1-4.6,0.6-9.3,1.2-10.6
			C269.7,140.7,270.2,137.9,271.1,134.6z"/>
		<path class="st7" d="M274.6,121.1c-0.1,0.1-0.2,0.2-0.3,0.3C274.4,121.3,274.5,121.2,274.6,121.1L274.6,121.1z"/>
		<path class="st7" d="M272.3,127.8c0-2.3,0.7-4.4,1.9-6.2c-2.5,3.5-4.7,9.6-4.7,9.6s0.2,0.5,0.6,1.4c0.3,0.6,0.6,1.2,1,2
			C271.6,132.6,272.3,130.3,272.3,127.8z"/>
		<path class="st7" d="M307.2,142.3c-1.1-1.5-2.2-3.4-3.2-5.5c-0.3,0.2-0.6,0.3-0.9,0.5c-3-3.2-5.6-5.7-5.6-5.7
			c-3.7-7.8-1.4-12.2,5.7-14c1.1,0.2,2.1,0.7,3.1,1.2c-0.9-0.6-2-1.1-3.1-1.3c-0.1,0-0.2,0-0.3,0c-1.2-0.1-2.4-0.3-3.7-0.3
			c0.3,0.7-6.1,10-10.2,11.5c-1.7-4.2-6.3-4.4-6.3-4.4s-4.3-0.9-5.7,1.8c0.9-5.6,6.3-8.6,8.1-9c-1.3,0.1-2.6,0.2-3.9,0.4
			c-0.5,0.1-0.9,0.2-1.4,0.3c-2.1,0.6-3.9,1.8-5.2,3.4c-0.1,0.1-0.2,0.2-0.3,0.3c0,0.1-0.1,0.1-0.1,0.2c-1.2,1.7-1.9,3.9-1.9,6.2
			c0,2.5-0.7,4.8-1.2,6.8c-0.9,3.4-1.4,6.1,2.1,8.6c-0.6,1.3-1.2,6-1.2,10.6c4.8,1.8,10,2.8,15.5,2.8c6.9,0,13.6-1.6,19.7-4.3
			c-0.1-3.2-0.2-6.9,0.1-11.2c0,0,0,0,0,0C307.2,141.5,307.2,141.9,307.2,142.3z"/>
		<path class="st11" d="M282.7,124.1c0,0,4.6,0.3,6.3,4.4c4-1.5,10.4-10.7,10.2-11.5C299.1,117.1,290,121.5,282.7,124.1z"/>
		<path class="st11" d="M285.1,117C285.1,117,285.1,117,285.1,117c-1.8,0.4-7.2,3.4-8.1,9c1.3-2.7,5.7-1.8,5.7-1.8
			C281.3,118.9,285.1,117,285.1,117z"/>
		<path class="st8" d="M288.9,111.8c0-0.1,0-0.1,0-0.2C289,111.7,288.9,111.7,288.9,111.8z"/>
		<path class="st8" d="M299.3,103.8c-0.8,1.2-1.8,2.2-3.2,3.2c-0.6,0.4-1.1,0.7-1.7,1c-1.3,2.2-3.6,3.8-5.6,4.6c0-0.1,0-0.1,0-0.2
			c-0.5,2.1-1.5,4-3.7,4.5c0,0-3.8,1.9-2.5,7.2c7.3-2.6,16.5-7,16.5-7C297.7,113.8,298.3,108.1,299.3,103.8z"/>
		<path class="st7" d="M288.8,112.5c0-0.2,0.1-0.4,0.1-0.7C288.9,112,288.9,112.2,288.8,112.5z"/>
		<path class="st10" d="M288.8,112.5c0-0.2,0.1-0.4,0.1-0.7C288.9,112,288.9,112.2,288.8,112.5z"/>
		<path class="st7" d="M289.2,108.9c0,0.9-0.1,1.8-0.2,2.7C289.1,110.7,289.2,109.8,289.2,108.9
			C289.2,108.9,289.2,108.9,289.2,108.9z"/>
		<path class="st10" d="M289.2,108.9c0,0.9-0.1,1.8-0.2,2.7C289.1,110.7,289.2,109.8,289.2,108.9
			C289.2,108.9,289.2,108.9,289.2,108.9z"/>
		<path class="st8" d="M294.4,108c-1.7,0.8-3.5,1.1-5.2,0.9c0,0.9-0.1,1.8-0.2,2.7c0,0.1,0,0.1,0,0.2c0,0.2-0.1,0.4-0.1,0.7
			c0,0.1,0,0.1,0,0.2C290.8,111.8,293.1,110.2,294.4,108z"/>
		<path class="st10" d="M294.4,108c-1.7,0.8-3.5,1.1-5.2,0.9c0,0.9-0.1,1.8-0.2,2.7c0,0.1,0,0.1,0,0.2c0,0.2-0.1,0.4-0.1,0.7
			c0,0.1,0,0.1,0,0.2C290.8,111.8,293.1,110.2,294.4,108z"/>
		<path class="st8" d="M294.4,108c0.6-0.3,1.1-0.6,1.7-1c1.4-1,2.4-2,3.2-3.2c0.4-0.5,0.7-1.1,1-1.8c-0.2,0-0.4,0.1-0.6,0.1
			c-1.7,0.2-2.1-1.7-1.4-3.4c0.2-0.5,0.6-1.1,1-1.6c-0.5-1.5-0.3-3,0.3-4.3c-1.5-3.1-3.1-6-3.3-8.1c-4.1,1.3-8,1.8-11.5,1.9
			c-0.2,0.2-0.3,0.5-0.4,0.7c0.5,0,0.9,0.1,1,0.1c0.2,0.1,0.3,0.3,0.2,0.4s-0.3,0.3-0.4,0.2c0,0-0.5-0.2-1.1-0.1
			c-2,3.8-2.8,8.6-2.7,12.2c0.2,4.8,3.7,8.1,7.9,8.5c0,0,0,0,0,0C290.8,109.1,292.6,108.8,294.4,108z M292.1,88.4
			c0.1,0,1.7,0.2,2.5,2c0.1,0.2,0,0.4-0.2,0.5c-0.1,0-0.2,0-0.3,0c-0.1,0-0.2-0.1-0.2-0.2c-0.7-1.4-1.9-1.6-1.9-1.6
			c-0.2,0-0.3-0.2-0.3-0.4C291.8,88.5,291.9,88.3,292.1,88.4z M291.8,93.3C291.8,93.3,291.8,93.3,291.8,93.3
			c0.3,0.2,0.4,0.6,0.3,1.1c-0.1,0.6-0.5,1-0.9,0.9c-0.4-0.1-0.6-0.6-0.5-1.2c0.1-0.3,0.2-0.6,0.4-0.8c-0.4-0.2-0.7-0.8-0.7-0.8
			L291.8,93.3z M283.6,92.9c0.1-0.3,0.2-0.6,0.4-0.8c-0.4-0.2-0.7-0.8-0.7-0.8l1.3,0.7c0,0,0,0,0,0c0.3,0.2,0.4,0.6,0.3,1.1
			c-0.1,0.6-0.5,1-0.9,0.9C283.7,94,283.5,93.5,283.6,92.9z M285.9,97.7c0,0-1.4,0.1-2-0.8c1.3-1,2.8-3.3,2.8-3.3L285.9,97.7z
			 M287.8,100.4c-0.1,0-0.2-0.1-0.1-0.2c0-0.1,0.1-0.2,0.2-0.1c2.5,0.5,4.1-1.1,4.1-1.1c0.1-0.1,0.2-0.1,0.2,0
			c0.1,0.1,0.1,0.2,0,0.2c-0.1,0.1-1.3,1.3-3.4,1.3C288.5,100.5,288.2,100.5,287.8,100.4z"/>
		<polygon class="st7" points="305.5,93.5 305.5,93.5 305.5,93.5 		"/>
		<path class="st7" d="M301,96c-0.4-1-0.9-2.1-1.4-3.1c-0.6,1.3-0.8,2.9-0.3,4.3C299.8,96.6,300.4,96.2,301,96z"/>
		<path class="st7" d="M291.1,93.4c-0.2,0.2-0.4,0.4-0.4,0.8c-0.1,0.6,0.1,1.1,0.5,1.2c0.4,0.1,0.8-0.3,0.9-0.9
			c0.1-0.5-0.1-0.9-0.3-1.1C291.5,93.5,291.3,93.5,291.1,93.4z"/>
		<path class="st7" d="M284.9,93.1c0.1-0.5-0.1-0.9-0.3-1.1c-0.2,0.1-0.4,0.2-0.6,0.1c-0.2,0.2-0.4,0.4-0.4,0.8
			c-0.1,0.6,0.1,1.1,0.5,1.2C284.4,94.1,284.8,93.7,284.9,93.1z"/>
		<path class="st7" d="M284.6,92C284.6,92,284.6,92,284.6,92l-1.3-0.7c0,0,0.3,0.6,0.7,0.8C284.2,92.2,284.4,92.2,284.6,92z"/>
		<path class="st12" d="M283.9,97c0.6,0.9,2,0.8,2,0.8l0.8-4.1C286.7,93.6,285.2,96,283.9,97z"/>
		<path class="st7" d="M292.2,99c-0.1-0.1-0.2-0.1-0.2,0c0,0-1.5,1.6-4.1,1.1c-0.1,0-0.2,0-0.2,0.1c0,0.1,0,0.2,0.1,0.2
			c0.3,0.1,0.7,0.1,1,0.1c2.1,0,3.4-1.2,3.4-1.3C292.3,99.2,292.3,99.1,292.2,99z"/>
		<path class="st8" d="M301,96c-0.6,0.2-1.2,0.7-1.7,1.3c-0.4,0.5-0.8,1-1,1.6c-0.8,1.7-0.3,3.6,1.4,3.4c0.2,0,0.4-0.1,0.6-0.1
			c0.7-0.2,1.4-0.6,2.1-1.2C302.2,99.3,301.7,97.6,301,96z"/>
		<path class="st7" d="M296.6,83.3c0.1-1.4,0.9-1.8,2-1.6c-6.1-3.5-14.9,0.3-15.6,5c0.6,0,1.2,0,1.9,0c3.5-0.1,7.5-0.6,11.5-1.9
			C296.3,84.2,296.4,83.7,296.6,83.3z"/>
		<path class="st7" d="M296.6,83.3c-0.2,0.4-0.2,0.9-0.2,1.5c0.1,2.1,1.8,5,3.3,8.1c0.5,1,1,2,1.4,3.1c0.7,1.6,1.2,3.3,1.3,4.9
			c0.1,1.5,0,3-0.6,4.4c2.4-2.7,3.4-7.6,3.8-11.8c0,0,0,0,0,0c0.4-4,0.2-7.4,0.2-7.4s-4.5-3.9-7.2-4.4
			C297.4,81.5,296.6,81.9,296.6,83.3z"/>
		<path class="st7" d="M292,89c0,0,1.3,0.2,1.9,1.6c0,0.1,0.1,0.2,0.2,0.2c0.1,0,0.2,0,0.3,0c0.2-0.1,0.2-0.3,0.2-0.5
			c-0.8-1.7-2.4-2-2.5-2c-0.2,0-0.4,0.1-0.4,0.3C291.7,88.8,291.8,89,292,89z"/>
		<path class="st7" d="M285.1,88.2c0.2,0.1,0.4,0,0.4-0.2s0-0.4-0.2-0.4c0,0-0.4-0.1-1-0.1c-0.6,0-1.4,0.1-2.2,0.7
			c-0.2,0.1-0.2,0.3-0.1,0.5c0.1,0.1,0.1,0.1,0.2,0.1c0.1,0,0.2,0,0.3-0.1c0.5-0.4,1-0.5,1.4-0.6C284.6,88,285.1,88.2,285.1,88.2z"
			/>
		<path class="st7" d="M291.1,93.4c0.2,0.1,0.4,0.1,0.6-0.1c0,0,0,0,0,0l-1.3-0.7C290.5,92.6,290.7,93.2,291.1,93.4z"/>
		<path class="st7" d="M307.2,142.3c0-0.4,0.1-0.8,0.1-1.3c-0.6-0.9-1.1-1.8-1.7-2.7c-0.4-0.6-0.8-1.1-1.2-1.7
			c-0.1,0.1-0.2,0.1-0.4,0.2C305,138.9,306.1,140.8,307.2,142.3z"/>
		<path class="st10" d="M307.2,142.3c0-0.4,0.1-0.8,0.1-1.3c-0.6-0.9-1.1-1.8-1.7-2.7c-0.4-0.6-0.8-1.1-1.2-1.7
			c-0.1,0.1-0.2,0.1-0.4,0.2C305,138.9,306.1,140.8,307.2,142.3z"/>
		<path class="st8" d="M310.1,150.6l0,0.2c4-2.2,7.7-4.9,10.9-8c-0.6-1.7-1.2-3.2-1.9-4.7c-1-2.2-2.1-4.2-3.2-6.1
			c-1-1.7-2.1-3.4-3.1-5c-1,2.1-3.8,7.1-8.4,9.7c0.4,0.6,0.8,1.1,1.2,1.7c0.6,0.9,1.2,1.8,1.7,2.7c0,0,0,0,0,0
			c0.5,0.8,1,1.6,1.4,2.4c0.8,1.4,1.5,2.7,2,4l-0.1,0.7C310.5,148.9,310.3,149.7,310.1,150.6z"/>
		<path class="st7" d="M297.5,131.6c0,0,2.6,2.6,5.6,5.7c0.3-0.1,0.6-0.3,0.9-0.5c0.1-0.1,0.2-0.1,0.4-0.2c4.5-2.6,7.3-7.6,8.4-9.7
			c0.3-0.6,0.4-1,0.4-1s-2.9-4.8-6.9-7.2c-1-0.6-2-1-3.1-1.2C296.1,119.3,293.8,123.8,297.5,131.6z"/>
	</g>
	<path class="st9" d="M345.5,31.3h14.1c0.8,0,1.5-0.6,1.5-1.4l0,0c0-0.8-0.6-1.4-1.3-1.4h-14.1c-0.8,0-1.5,0.6-1.5,1.4l0,0
		C344.1,30.6,344.7,31.3,345.5,31.3z"/>
	<path class="st9" d="M345.2,36.2h14.1c0.8,0,1.5-0.6,1.5-1.4l0,0c0-0.8-0.6-1.4-1.3-1.4h-14.1c-0.8,0-1.5,0.6-1.5,1.4l0,0
		C343.8,35.5,344.4,36.2,345.2,36.2z"/>
	<path class="st9" d="M231.2,36.2h14.1c0.8,0,1.5-0.6,1.5-1.4l0,0c0-0.8-0.6-1.4-1.3-1.4h-14.1c-0.8,0-1.5,0.6-1.5,1.4l0,0
		C229.8,35.5,230.4,36.2,231.2,36.2z"/>
	<path class="st9" d="M344.9,41.1H359c0.8,0,1.5-0.6,1.5-1.4l0,0c0-0.8-0.6-1.4-1.3-1.4H345c-0.8,0-1.5,0.6-1.5,1.4l0,0
		C343.5,40.4,344.1,41.1,344.9,41.1z"/>
	<path class="st11" d="M326.4,220.5h-85.2c-6.8,0-12-5.6-11.6-12.3l0,0c0.4-6.8,6.3-12.3,13.1-12.3h85.2c6.8,0,12,5.6,11.6,12.3l0,0
		C339,214.9,333.2,220.5,326.4,220.5z"/>
	<path class="st11" d="M324.4,253.6h-85.2c-6.8,0-12-5.6-11.6-12.3l0,0c0.4-6.8,6.3-12.3,13.1-12.3h85.2c6.8,0,12,5.6,11.6,12.3l0,0
		C337.1,248.1,331.2,253.6,324.4,253.6z"/>
	<path class="st11" d="M322.5,286.8h-85.2c-6.8,0-12-5.6-11.6-12.3v0c0.4-6.8,6.3-12.3,13.1-12.3h85.2c6.8,0,12,5.6,11.6,12.3v0
		C335.1,281.2,329.3,286.8,322.5,286.8z"/>
	
		<ellipse transform="matrix(0.7174 -0.6967 0.6967 0.7174 -76.2005 228.4155)" class="st9" cx="243.4" cy="208.1" rx="6.5" ry="6.2"/>
	<path class="st9" d="M242.7,235.3l0.8,3.2c0.1,0.4,0.4,0.6,0.8,0.6h3.3c0.9,0,1.1,1.1,0.4,1.6l-2.8,2c-0.3,0.2-0.5,0.6-0.4,1
		l0.8,3.2c0.2,0.8-0.8,1.5-1.4,1l-2.6-2c-0.3-0.2-0.7-0.2-1,0l-2.8,2c-0.7,0.5-1.6-0.2-1.3-1l1.2-3.2c0.1-0.4,0-0.8-0.3-1l-2.6-2
		c-0.7-0.5-0.2-1.6,0.6-1.6h3.3c0.4,0,0.7-0.2,0.9-0.6l1.2-3.2C241.3,234.5,242.5,234.5,242.7,235.3z"/>
	<path class="st9" d="M245,271.1l-0.5,8.9c0,0.8-0.7,1.4-1.5,1.4h-7.8c-0.8,0-1.3-0.6-1.3-1.4l0.6-11.1c0-0.8,0.7-1.4,1.5-1.4h5.6
		L245,271.1z"/>
	<path class="st11" d="M241.7,267.5l3.4,3.6h-2.2c-0.8,0-1.3-0.6-1.3-1.4L241.7,267.5 M240.8,265.1l-0.1,2.4l-0.1,2.2
		c0,0.7,0.2,1.3,0.6,1.7s1,0.7,1.7,0.7h2.2h2.4l-1.6-1.7l-3.4-3.6L240.8,265.1L240.8,265.1z"/>
	<path class="st16" d="M323.5,206.8h-63.8c-1.1,0-2-0.9-1.9-2l0,0c0.1-1.1,1-2,2.1-2h63.8c1.1,0,2,0.9,1.9,2l0,0
		C325.6,205.9,324.6,206.8,323.5,206.8z"/>
	<path class="st16" d="M311.4,213.5h-52.1c-1.1,0-2-0.9-1.9-2l0,0c0.1-1.1,1-2,2.1-2h52.1c1.1,0,2,0.9,1.9,2l0,0
		C313.5,212.6,312.5,213.5,311.4,213.5z"/>
	<path class="st16" d="M321.4,242.6h-17.6c-1.1,0-2.1,0.9-2.1,2l0,0c-0.1,1.1,0.8,2,1.9,2h17.6c1.1,0,2.1-0.9,2.1-2l0,0
		C323.4,243.5,322.5,242.6,321.4,242.6z"/>
	<path class="st16" d="M293.5,242.6h-35.9c-1.1,0-2.1,0.9-2.1,2l0,0c-0.1,1.1,0.8,2,1.9,2h35.9c1.1,0,2.1-0.9,2.1-2l0,0
		C295.5,243.5,294.6,242.6,293.5,242.6z"/>
	<path class="st16" d="M310.1,236H258c-1.1,0-2.1,0.9-2.1,2l0,0c-0.1,1.1,0.8,2,1.9,2h52.1c1.1,0,2.1-0.9,2.1-2l0,0
		C312,236.9,311.2,236,310.1,236z"/>
	<path class="st16" d="M319.5,275.8h-63.8c-1.1,0-2.1,0.9-2.1,2v0c-0.1,1.1,0.8,2,1.9,2h63.8c1.1,0,2.1-0.9,2.1-2v0
		C321.4,276.7,320.6,275.8,319.5,275.8z"/>
	<path class="st16" d="M308.1,269.1h-52.1c-1.1,0-2.1,0.9-2.1,2l0,0c-0.1,1.1,0.8,2,1.9,2h52.1c1.1,0,2.1-0.9,2.1-2l0,0
		C310.1,270,309.2,269.1,308.1,269.1z"/>
</g>
</svg>
