<?xml version="1.0" encoding="utf-8"?>
<!-- Generator: Adobe Illustrator 23.0.3, SVG Export Plug-In . SVG Version: 6.00 Build 0)  -->
<svg version="1.1" id="Layer_1" xmlns="http://www.w3.org/2000/svg" xmlns:xlink="http://www.w3.org/1999/xlink" x="0px" y="0px"
	 viewBox="0 0 1994 781" style="enable-background:new 0 0 1994 781;" xml:space="preserve">
<style type="text/css">
	.st0{enable-background:new    ;}
	.st1{fill:#F3F3F3;}
	.st2{fill:#DE1212;}
</style>
<g>
	<g class="st0">
		<path class="st1" d="M179.9,463.8c11.4,13.3,26.9,20,46.4,20c19.5,0,35-6.7,46.4-20c11.4-13.3,17.1-31.4,17.1-54.3V271.4h42.1
			v139.9c0,35.9-9.9,63.6-29.6,83c-19.8,19.4-45.1,29.1-76,29.1c-30.9,0-56.3-9.7-76-29.1c-19.8-19.4-29.6-47.1-29.6-83V271.4h42.1
			v138.1C162.8,432.4,168.5,450.5,179.9,463.8z"/>
		<path class="st1" d="M440.1,310.7v68.5h110.6v38.9H440.1v102.8H398V271.4h166.3l-0.4,39.3H440.1z"/>
		<path class="st1" d="M613.5,271.4h42.1v249.5h-42.1V271.4z"/>
		<path class="st1" d="M724.9,520.9V271.4H767v209.5h113.9v40H724.9z"/>
		<path class="st1" d="M969,520.9h-42.1V271.4h65.7l75.3,156.7l75.3-156.7h65.3v249.5h-42.1V326l-87.1,173.1h-23.6L969,326V520.9z"
			/>
		<path class="st1" d="M1313.1,464.1l-25,56.8h-45l109.9-249.5h45L1508,520.9h-45l-25-56.8H1313.1z M1420.9,425.2l-45.3-102.8
			l-45.3,102.8H1420.9z"/>
	</g>
	<g>
		<g>
			<g>
				<path class="st2" d="M1867.3,371.5l-143.2-88.2c-10.4-6.4-22.9-6.6-33.5-0.7s-17,16.7-17,28.9v175.7c0,18.4,14.8,33.4,33,33.5
					h0.1c5.7,0,11.6-1.8,17.2-5.2c4.5-2.7,5.9-8.5,3.1-13c-2.7-4.5-8.5-5.9-13-3.1c-2.6,1.6-5.1,2.4-7.4,2.4
					c-6.9,0-14.2-5.9-14.2-14.6V311.5c0-5.2,2.7-9.9,7.3-12.4c4.6-2.5,9.9-2.4,14.4,0.3l143.2,88.2c4.3,2.6,6.8,7.1,6.8,12.1
					c0,5.1-2.5,9.5-6.8,12.1l-103.5,63.4c-4.5,2.7-5.9,8.5-3.1,13c2.7,4.5,8.5,5.9,13,3.1l103.5-63.4c9.9-6,15.8-16.6,15.9-28.2
					C1883,388.2,1877.1,377.6,1867.3,371.5z"/>
				<path class="st2" d="M1706.7,530.7h-0.1c-23.7-0.1-43-19.6-43-43.5V311.5c0-15.9,8.3-29.9,22.1-37.6c13.8-7.7,30.1-7.4,43.6,0.9
					l143.2,88.2c12.7,7.9,20.4,21.6,20.5,36.6v0.2c-0.1,15.2-7.9,28.9-20.7,36.7l-103.5,63.4c-4.4,2.7-9.7,3.6-14.8,2.4
					c-5-1.2-9.3-4.3-12-8.8c-2.8-4.5-3.6-9.7-2.4-14.8c1.2-5.1,4.4-9.3,8.9-12l103.4-63.4c1.4-0.8,2-2,2-3.6c0-1.5-0.7-2.8-2-3.5
					L1708.9,308c-1.5-0.9-2.9-0.9-4.4-0.1c-1.3,0.7-2.1,2-2.1,3.6v175.7c0,3.1,2.7,4.6,4.2,4.6c0.2,0,0.9-0.2,2.2-0.9
					c4.4-2.8,9.7-3.6,14.8-2.4c5,1.2,9.3,4.3,12,8.8c2.7,4.5,3.6,9.7,2.4,14.8c-1.2,5.1-4.4,9.3-8.9,12
					C1721.9,528.4,1714.2,530.7,1706.7,530.7z M1719.3,507.9L1719.3,507.9C1719.3,507.9,1719.3,507.9,1719.3,507.9z M1759,483.7
					L1759,483.7L1759,483.7z M1758.4,482.8C1758.4,482.8,1758.4,482.8,1758.4,482.8L1758.4,482.8z"/>
			</g>
		</g>
	</g>
</g>
</svg>
