<?xml version="1.0" encoding="utf-8"?>
<!-- Generator: Adobe Illustrator 23.0.3, SVG Export Plug-In . SVG Version: 6.00 Build 0)  -->
<svg version="1.1" id="Layer_1" xmlns="http://www.w3.org/2000/svg" xmlns:xlink="http://www.w3.org/1999/xlink" x="0px" y="0px"
	 viewBox="0 0 1994 781" style="enable-background:new 0 0 1994 781;" xml:space="preserve">
<style type="text/css">
	.st0{fill:#F3F3F3;}
	.st1{font-family:'Montserrat-Regular';}
	.st2{font-size:356.9283px;}
	.st3{fill:#DE1212;stroke:#DE1212;stroke-width:20;stroke-miterlimit:10;}
</style>
<g>
	<text transform="matrix(1 0 0 1 89.2295 520.8916)" class="st0 st1 st2">UFILMA</text>
	<g>
		<g>
			<path class="st3" d="M1867.3,371.5l-143.2-88.2c-10.4-6.4-22.9-6.6-33.5-0.7c-10.6,5.9-17,16.7-17,28.9v175.7
				c0,18.4,14.8,33.4,33,33.5c0,0,0.1,0,0.1,0c5.7,0,11.6-1.8,17.2-5.2c4.5-2.7,5.9-8.5,3.1-13c-2.7-4.5-8.5-5.9-13-3.1
				c-2.6,1.6-5.1,2.4-7.4,2.4c-6.9,0-14.2-5.9-14.2-14.6V311.5c0-5.2,2.7-9.9,7.3-12.4c4.6-2.5,9.9-2.4,14.4,0.3l143.2,88.2
				c4.3,2.6,6.8,7.1,6.8,12.1c0,5.1-2.5,9.5-6.8,12.1l-103.5,63.4c-4.5,2.7-5.9,8.5-3.1,13c2.7,4.5,8.5,5.9,13,3.1l103.5-63.4
				c9.9-6,15.8-16.6,15.9-28.2C1883,388.2,1877.1,377.6,1867.3,371.5z"/>
		</g>
	</g>
</g>
</svg>
