<?xml version="1.0" encoding="utf-8"?>
<!-- Generator: Adobe Illustrator 23.0.3, SVG Export Plug-In . SVG Version: 6.00 Build 0)  -->
<svg version="1.1" id="OBJECTS" xmlns="http://www.w3.org/2000/svg" xmlns:xlink="http://www.w3.org/1999/xlink" x="0px" y="0px"
	 viewBox="0 0 432.8 401.2" style="enable-background:new 0 0 432.8 401.2;" xml:space="preserve">
<style type="text/css">
	.st0{fill:#DE1212;}
	.st1{opacity:0.48;}
	.st2{fill:#84529C;}
	.st3{fill:#268E26;}
	.st4{fill:#FFFFFF;}
	.st5{fill:#0032D0;}
	.st6{fill:#D30000;}
	.st7{fill:#2B232D;}
	.st8{opacity:0.5;}
	.st9{fill:#140716;}
	.st10{fill:#61376B;}
	.st11{fill:#A62E3A;}
	.st12{opacity:0.35;}
	.st13{fill:#3D243E;}
	.st14{fill:#1D111E;}
	.st15{fill:#FABD3C;}
	.st16{opacity:0.9;}
	.st17{opacity:0.28;}
	.st18{opacity:0.65;}
	.st19{clip-path:url(#SVGID_2_);fill:#662346;}
	.st20{clip-path:url(#SVGID_4_);fill:#662346;}
	.st21{opacity:0.43;}
	.st22{fill:#0D1117;}
	.st23{opacity:0.2;}
	.st24{fill:#EAEAEA;}
	.st25{opacity:0.6;}
	.st26{fill:#F3F3F3;}
	.st27{fill:#6BB1A2;}
	.st28{opacity:0.3;}
	.st29{fill:#583929;}
</style>
<g>
	<g>
		<g>
			<path class="st0" d="M353,102.5c-0.7-3.5-5.7-11.9-8.8-13.7c-3.1-1.8-13-3.4-14.8-5c-4.4-4-6.8-12-0.9-12.2
				c5.5-0.2,10.1-5.1,10.3-7.2c0.2-2,2-7-9.3-16.2c3.2,7.3,3.9,12.2,1.9,16.8c-2,4.7-15.9,6.1-13.4,10.5c1.2,2,0.2,11.6,1.9,13.2
				c4.8,4.7,14.8,7.4,14.8,9.4c0,2-2.5,10.7-6,10.9c-3.5,0.1-6-2.3-6.4-4.3c-0.4-2,0.4-5.1,3.8-5.8c-2.9-4.1-11.4-1.4-12.2,0.8
				c-0.7,2.2-0.1,11.3,3.7,14.6c3.8,3.2,8,2.2,13,2.7c4.9,0.5,7.3,3.8,11.7,1.5C346.5,116.3,353.9,107.3,353,102.5z"/>
		</g>
		<g class="st1">
			<g>
				<path class="st2" d="M353,102.5c-0.7-3.5-5.7-11.9-8.8-13.7c-0.2-0.1-0.4-0.2-0.7-0.3c0.1,0.8,0.6,1.6,1.1,2.3
					c0.8,0.9,1.7,1.7,2.5,2.6c1.9,2.3,2.5,5.6,2,8.6c-0.5,3-2.1,5.7-4,8.1c-1.8,2.1-4.2,4-6.9,3.8c2.9-4,3.9-9.5,2.5-14.3
					c-0.9,2.6-1.9,5.2-3.3,7.5c-1.4,2.3-3.4,4.4-5.9,5.5c-4.3,1.9-9.8,0.5-13-3.1c-2.7-3-3.7-7.1-3.3-11.1c-0.7,0.4-1.2,0.9-1.4,1.4
					c-0.7,2.2-0.1,11.3,3.7,14.6c3.8,3.2,8,2.2,13,2.7c4.9,0.5,7.3,3.8,11.7,1.5C346.5,116.3,353.9,107.3,353,102.5z"/>
			</g>
			<g>
				<path class="st2" d="M319.7,88.8c2.2,2.1,5.4,3.8,8.3,5.2c-1.2-0.9-2.3-1.9-3.4-2.9c-1.4-1.3-2.8-2.8-3.3-4.7
					c-0.6-2.3,0.3-4.8-0.2-7.2c-0.2-1-0.7-2-1-3c-0.3-1-0.3-2.2,0.3-3c0.8-1.1,2.4-1.3,3.7-1.8c1.8-0.6,3.4-1.9,4.4-3.5
					c0-0.1,0.1-0.2,0.1-0.2c-4.6,2.8-12.7,4.4-10.7,7.9C319,77.6,318,87.2,319.7,88.8z"/>
			</g>
		</g>
	</g>
	<g>
		<g>
			<path class="st0" d="M60.6,185c0.7-3.5,5.7-11.9,8.8-13.7c3.1-1.8,13-3.4,14.8-5c4.4-4,6.8-12,0.9-12.2
				c-5.5-0.2-10.1-5.1-10.3-7.2c-0.2-2-2-7,9.3-16.2c-3.2,7.3-3.9,12.2-1.9,16.8c2,4.7,15.9,6.1,13.4,10.5c-1.2,2-0.2,11.6-1.9,13.2
				c-4.8,4.7-14.8,7.4-14.8,9.4c0,2,2.5,10.7,6,10.9c3.5,0.1,6-2.3,6.4-4.3c0.4-2-0.4-5.1-3.8-5.8c2.9-4.1,11.4-1.4,12.2,0.8
				c0.7,2.2,0.1,11.3-3.7,14.6c-3.8,3.2-8,2.2-13,2.7c-4.9,0.5-7.3,3.8-11.7,1.5C67.1,198.8,59.6,189.8,60.6,185z"/>
		</g>
		<g class="st1">
			<g>
				<path class="st2" d="M60.6,185c0.7-3.5,5.7-11.9,8.8-13.7c0.2-0.1,0.4-0.2,0.7-0.3c-0.1,0.8-0.6,1.6-1.1,2.3
					c-0.8,0.9-1.7,1.7-2.5,2.6c-1.9,2.3-2.5,5.6-2,8.6c0.5,3,2.1,5.7,4,8.1c1.8,2.1,4.2,4,6.9,3.8c-2.9-4-3.9-9.5-2.5-14.3
					c0.9,2.6,1.9,5.2,3.3,7.5c1.4,2.3,3.4,4.4,5.9,5.5c4.3,1.9,9.8,0.5,13-3.1c2.7-3,3.7-7.1,3.3-11.1c0.7,0.4,1.2,0.9,1.4,1.4
					c0.7,2.2,0.1,11.3-3.7,14.6c-3.8,3.2-8,2.2-13,2.7c-4.9,0.5-7.3,3.8-11.7,1.5C67.1,198.8,59.6,189.8,60.6,185z"/>
			</g>
			<g>
				<path class="st2" d="M93.9,171.3c-2.2,2.1-5.4,3.8-8.3,5.2c1.2-0.9,2.3-1.9,3.4-2.9c1.4-1.3,2.8-2.8,3.3-4.7
					c0.6-2.3-0.3-4.8,0.2-7.2c0.2-1,0.7-2,1-3c0.3-1,0.3-2.2-0.3-3c-0.8-1.1-2.4-1.3-3.7-1.8c-1.8-0.6-3.4-1.9-4.4-3.5
					c0-0.1-0.1-0.2-0.1-0.2c4.6,2.8,12.7,4.4,10.7,7.9C94.6,160.1,95.5,169.7,93.9,171.3z"/>
			</g>
		</g>
	</g>
	<g>
		<g>
			<g>
				<g>
					<path class="st3" d="M72.5,307.7C72.5,307.7,72.5,307.7,72.5,307.7c-0.2,0-0.3-0.2-0.3-0.4c0,0,0.3-1.9-0.2-2.9
						c-0.1-0.2,0-0.3,0.1-0.4s0.3,0,0.4,0.1c0.7,1.2,0.3,3.2,0.3,3.3C72.8,307.6,72.7,307.7,72.5,307.7z"/>
				</g>
				<g>
					<path class="st4" d="M71.9,308c-0.2,0-0.3-0.1-0.3-0.3c-0.1-0.6-0.5-2.2-1.4-2.4c-0.2,0-0.3-0.2-0.2-0.4s0.2-0.3,0.4-0.3
						c1.5,0.3,1.9,2.8,1.9,2.9C72.3,307.8,72.1,307.9,71.9,308C72,308,71.9,308,71.9,308z"/>
				</g>
				<g>
					<path class="st5" d="M71.2,308c-0.1,0-0.3-0.1-0.3-0.2c0,0-0.6-1.8-1.7-1.6c-0.2,0-0.3-0.1-0.4-0.3s0.1-0.3,0.3-0.4
						c1.6-0.2,2.3,2,2.3,2.1C71.6,307.8,71.5,308,71.2,308C71.3,308,71.3,308,71.2,308z"/>
				</g>
				<g>
					<path class="st6" d="M73.4,308.1c-0.2,0-0.3-0.1-0.3-0.3c0-0.1-0.2-2.8,1.3-3.6c0.2-0.1,0.3,0,0.4,0.1c0.1,0.2,0,0.3-0.1,0.4
						c-0.9,0.5-1,2.3-0.9,3C73.8,308,73.6,308.1,73.4,308.1C73.5,308.1,73.5,308.1,73.4,308.1z"/>
				</g>
				<g>
					<g>
						<path class="st7" d="M74,306.5l-3.6,0.9c0.1,0.6,3.5,14.2,15.6,20.9c7.9,4.4,17.6,4.7,28.8,0.9c33.5-11.3,74.7-2.1,75.1-2
							l0.8-3.6c-1.7-0.4-42.6-9.6-77.1,2.1c-10.2,3.4-18.9,3.2-25.9-0.6C77.2,319.2,74.1,306.7,74,306.5z"/>
					</g>
				</g>
				<g>
					<path class="st7" d="M70.5,307.4c0,0,0-0.4-0.5-0.8c0.9,0.2,1,0.4,1,0.4l0.4-1.1l0.4,0.9c0,0,0.8-1.3,1.5-1.5
						c-0.1,0.3,0,1.1,0,1.1l1.3-1c0,0-0.5,0.3-0.5,1.2s-0.4,1.3-0.6,1.4c-0.2,0.1-1.7,0.3-1.8,0.2C71.6,308.2,70.5,307.4,70.5,307.4
						z"/>
				</g>
			</g>
			<g class="st8">
				<path class="st9" d="M115.9,328.2c-11.2,3.8-20.9,3.5-28.8-0.9c-9.7-5.3-13.8-15.2-15.1-19.2c-0.1-0.4-0.2-0.8-0.3-1
					c-0.1-0.4-0.2-0.6-0.2-0.7c0,0,0-0.2-0.1-0.4l-0.3,1c0,0,0-0.1-0.1-0.1c-0.1-0.1-0.4-0.2-0.8-0.3c0.4,0.3,0.4,0.7,0.4,0.8
					c0.1,0.6,3.5,14.2,15.6,20.9c7.9,4.4,17.6,4.7,28.8,0.9c33.5-11.3,74.7-2.1,75.1-2l0.3-1.1C184.7,325,147,317.7,115.9,328.2z"/>
			</g>
			<g>
				<path class="st4" d="M68.2,302.3c-0.1,0-0.2-0.1-0.3-0.1c-1.6-2.5-3.8-3.1-3.8-3.1c-0.2,0-0.3-0.2-0.2-0.4
					c0-0.2,0.2-0.3,0.4-0.2c0.1,0,2.4,0.6,4.2,3.4c0.1,0.1,0,0.3-0.1,0.4C68.4,302.3,68.3,302.3,68.2,302.3z"/>
			</g>
			<g>
				<path class="st4" d="M70,301.9c-0.1,0-0.2-0.1-0.3-0.1c-1-1.6-1-5.1-1-5.3c0-0.2,0.1-0.3,0.3-0.3s0.3,0.1,0.3,0.3
					c0,0,0,3.5,0.9,4.9c0.1,0.1,0.1,0.3-0.1,0.4C70.1,301.9,70.1,301.9,70,301.9z"/>
			</g>
			<g>
				<path class="st4" d="M71.9,301.8c-0.2,0-0.3-0.1-0.3-0.3c0-2.6,2.2-4.9,2.3-5c0.1-0.1,0.3-0.1,0.4,0c0.1,0.1,0.1,0.3,0,0.4
					c0,0-2.1,2.2-2.1,4.6C72.2,301.7,72.1,301.8,71.9,301.8C71.9,301.8,71.9,301.8,71.9,301.8z"/>
			</g>
		</g>
		<g>
			<g>
				<g>
					<path class="st7" d="M304.2,329l0-3.7c24.3-0.3,41.8-7.1,47.8-18.8c3.6-6.9,2.7-15.1-2.3-22.5c-11.9-17.4-40.4-2.1-40.6-1.9
						l-1.8-3.2c1.3-0.7,31.7-17.1,45.4,3.1c5.8,8.6,6.8,18.1,2.5,26.2C351.3,315.9,339.5,328.6,304.2,329z"/>
				</g>
			</g>
			<g class="st8">
				<g>
					<path class="st9" d="M353.3,311.5c-5.4,7.5-18.4,17.2-49,17.5l0-3.7c0.4,0,0.7,0,1.1,0l0,2.3
						C334.1,327.3,347.3,318.7,353.3,311.5z"/>
				</g>
				<g>
					<path class="st9" d="M309.1,282.2l-1.8-3.2c0.1-0.1,0.6-0.3,1.4-0.7l1.4,2.6c0.3-0.2,28.8-15.5,40.6,1.9
						c5.1,7.4,5.9,15.6,2.3,22.5c-0.8,1.4-1.7,2.8-2.8,4.1c0.6-0.9,1.2-1.8,1.7-2.7c3.6-6.9,2.7-15.1-2.3-22.5
						C337.8,266.7,309.4,282.1,309.1,282.2z"/>
				</g>
			</g>
		</g>
	</g>
	<g>
		<path class="st0" d="M266.6,239.5c-2.1,9.3-14.4,12.3-50.1,11.8c-35.7,0.5-48-2.5-50.1-11.8c-2.1-12,3-25.3,11-40
			c2.4-4.5,4.3-9.1,5.8-13.4c1.1-3.5,2-6.8,2.7-9.8c0.4-1.8,0.8-3.6,1-5.1c0.2-1.1,0.3-2.1,0.5-3v0c0-0.2,0.1-0.4,0.1-0.6
			c0.1-0.4,0.1-0.9,0.2-1.3c0-0.4,0.1-0.8,0.1-1.1c0.2-1.6,0.2-2.6,0.2-2.6l4.1-0.1l1.8-0.1l4.2-0.1l14.6-0.5c0-0.2,0-0.3,0-0.3
			l3.8,0.1l3.8-0.1c0,0,0,0.1,0,0.3l21.2,0.8l2.6,0.1h0l1,0c0,0,0,0.2,0,0.6v0c0,0.2,0,0.4,0.1,0.7c0,0.5,0.1,1.2,0.2,2
			c0,0.3,0.1,0.7,0.1,1c0.1,1.1,0.3,2.4,0.5,3.9v0c0.1,0.5,0.1,1,0.2,1.5c0.2,1.1,0.4,2.3,0.6,3.5c0.5,2.9,1.2,6.3,2,9.8
			c0,0.1,0.1,0.2,0.1,0.4c0.2,0.7,0.3,1.3,0.5,2c0.9,3.6,2,7.5,3.3,11.4C257.4,213.4,268.6,228,266.6,239.5z"/>
	</g>
	<g>
		<path class="st0" d="M164.3,115.9c-1.6-3.9-2-8.5-2.8-15.4c-1-10.2-1.5-18.7-2-24c-0.6-6.7,3.1-5.4,5.7-4.3
			c4.7,1.9,11.4,6.4,14.8,8.9c5.3,3.8,13.6,14.6,13.4,19.6C188.1,107.4,178.7,114.1,164.3,115.9z"/>
	</g>
	<g class="st8">
		<path class="st10" d="M193.4,100.8c-0.3,0.3-0.5,0.6-0.8,1c-1.8-5.5-8.4-13.8-12.9-17c-3.4-2.4-10.1-7-14.8-8.9
			c-1.9-0.8-4.4-1.7-5.4,0.5c-0.5-6.4,3.1-5.1,5.7-4c4.7,1.9,11.4,6.4,14.8,8.9C185.3,85,193.6,95.8,193.4,100.8z"/>
	</g>
	<g>
		<path class="st11" d="M168.8,115.2c-1.2-3-0.7-7-1.4-12.3c-1-7.8-1.5-14.3-2-18.3c-0.6-5.1,1.9-4,3.7-3.1c3.2,1.6,7.7,5.2,10,7.2
			c3.6,3,10.9,12,10.9,15.8C186.7,109.3,178.3,114.2,168.8,115.2z"/>
	</g>
	<g class="st12">
		<path class="st11" d="M189.9,103.8c-2.4-3.7-6-7.8-8.2-9.7c-2.3-1.9-6.9-5.6-10-7.2c-1.8-0.9-4.2-2-3.7,3.1c0.4,4,1,10.5,2,18.3
			c0.3,2.5,0.4,4.6,0.5,6.5c-0.6,0.1-1.1,0.2-1.7,0.2c-1.2-3-0.7-7-1.4-12.3c-1-7.8-1.5-14.3-2-18.3c-0.6-5.1,1.9-4,3.7-3.1
			c3.2,1.6,7.7,5.2,10,7.2C182.5,91.5,189.2,99.7,189.9,103.8z"/>
	</g>
	<g>
		<path class="st13" d="M243.8,94.3c2,8.2,27.3,22.9,30.8,19.9c2.6-2.2,2.9-15.3,3-18.7c0.3-10.3-1-17.4-0.1-21.3
			c0.9-3.9-2.1-7.6-8.6-3.5C262.4,74.7,250.9,83.3,243.8,94.3z"/>
	</g>
	<g>
		<path class="st13" d="M243.8,94.3c2,8.2,27.3,22.9,30.8,19.9c2.6-2.2,2.9-15.3,3-18.7c0.3-10.3-1-17.4-0.1-21.3
			c0.9-3.9-2.1-7.6-8.6-3.5C262.4,74.7,250.9,83.3,243.8,94.3z"/>
	</g>
	<g>
		<path class="st0" d="M243.8,94.3c2,8.2,27.3,22.9,30.8,19.9c2.6-2.2,2.9-15.3,3-18.7c0.3-10.3-1-17.4-0.1-21.3
			c0.9-3.9-2.1-7.6-8.6-3.5C262.4,74.7,250.9,83.3,243.8,94.3z"/>
	</g>
	<g class="st8">
		<path class="st10" d="M274.6,114.2c-0.4,0.3-1,0.4-1.8,0.4c1.6-4.3,1.8-14.1,1.9-16.9c0.3-10.3-1-17.4-0.1-21.3
			c0.9-3.9-2.1-7.6-8.6-3.5c-1.5,0.9-3.2,2-5,3.4c2.9-2.3,5.7-4.2,7.9-5.5c6.5-4,9.5-0.3,8.6,3.5c-0.9,3.9,0.4,11,0.1,21.3
			C277.5,98.8,277.2,112,274.6,114.2z"/>
	</g>
	<g>
		<path class="st11" d="M246.5,98.8c1.2,4.9,17.8,15.6,19.9,13.8c1.5-1.3,4.5-12.1,5.3-19.6c0.6-6.1-0.6-10.4-0.1-12.7
			c0.5-2.3-1.2-4.5-5.1-2.1C262.7,80.6,250.8,92.3,246.5,98.8z"/>
	</g>
	<g class="st12">
		<path class="st11" d="M271.7,93c-0.7,7.5-3.8,18.3-5.3,19.6c-0.1,0.1-0.3,0.2-0.5,0.2c1.3-4.1,2.7-10.1,3.2-14.9
			c0.6-6.1-0.6-10.4-0.1-12.7c0.5-2.3-1.2-4.5-5.1-2.1c-3.2,2-11.7,10.1-17,16.6c-0.2-0.3-0.3-0.6-0.4-0.9
			c4.2-6.5,16.2-18.2,20.1-20.6c3.9-2.4,5.7-0.2,5.1,2.1C271.1,82.6,272.3,86.9,271.7,93z"/>
	</g>
	<g>
		<path class="st0" d="M282.7,137.8c0.2,6.6-1.6,12.4-4.7,17.4c-2,3.2-4.5,6-7.4,8.5c-0.6,0.5-1.1,1-1.7,1.4
			c-0.6,0.5-1.2,0.9-1.8,1.3c-0.5,0.3-0.9,0.7-1.4,1c-0.5,0.3-1,0.6-1.4,0.9c-1.5,0.9-3.1,1.8-4.7,2.6c-0.1,0-0.2,0.1-0.3,0.1
			c-0.2,0.1-0.4,0.2-0.6,0.2h0c-0.1,0-0.3,0.1-0.4,0.1c-0.1,0-0.2,0.1-0.4,0.1c-0.4,0.1-0.8,0.3-1.2,0.4c-0.3,0.1-0.6,0.2-0.9,0.2
			c-0.2,0.1-0.5,0.1-0.8,0.2c-0.2,0-0.3,0.1-0.5,0.1c0,0,0,0,0,0c-0.4,0.1-0.9,0.2-1.4,0.3c-0.6,0.1-1.2,0.2-1.8,0.4
			c-0.8,0.2-1.7,0.3-2.6,0.5h0c-0.3,0-0.5,0.1-0.8,0.1c-0.5,0.1-1,0.1-1.5,0.2c0,0-0.1,0-0.1,0c0,0-0.1,0-0.1,0h0
			c-0.4,0.1-0.8,0.1-1.3,0.2c-0.5,0.1-1,0.1-1.6,0.2l-0.2,0c0,0,0,0-0.1,0c-0.8,0.1-1.6,0.2-2.3,0.3c-0.5,0.1-0.9,0.1-1.4,0.2
			c-0.4,0-0.9,0.1-1.3,0.1c-0.3,0-0.7,0.1-1,0.1c-0.7,0.1-1.4,0.1-2.1,0.2c-0.6,0.1-1.2,0.1-1.8,0.2c-0.3,0-0.6,0.1-0.9,0.1
			c-0.9,0.1-1.8,0.1-2.7,0.2c-0.6,0-1.2,0.1-1.8,0.1c-0.8,0.1-1.7,0.1-2.5,0.2c-0.4,0-0.8,0-1.1,0.1c-0.3,0-0.7,0-1,0
			c-0.6,0-1.1,0-1.7,0.1c-0.4,0-0.9,0-1.3,0.1c-0.6,0-1.1,0-1.7,0c-0.4,0-0.8,0-1.2,0c-0.5,0-1,0-1.4,0c-8.2,0.1-16-0.2-22-1.1
			c-0.3,0-0.6-0.1-0.9-0.1c-0.3,0-0.6-0.1-0.9-0.1c-0.7-0.1-1.5-0.2-2.2-0.3c0,0-0.1,0-0.1,0c-0.1,0-0.2,0-0.3,0
			c-0.5-0.1-1-0.1-1.4-0.2h0c-0.5-0.1-1-0.1-1.5-0.2c-0.5-0.1-1-0.1-1.5-0.2c-0.4-0.1-0.9-0.1-1.3-0.2c-0.1,0-0.1,0-0.2,0
			c-0.5-0.1-1-0.1-1.5-0.2c-0.5-0.1-1-0.2-1.5-0.3c-0.5-0.1-0.9-0.2-1.4-0.3c0,0-0.1,0-0.1,0c-0.4-0.1-0.8-0.2-1.2-0.3
			c-0.1,0-0.1,0-0.2,0c-3-0.9-5.8-2.2-8.4-3.8c-0.4-0.3-0.8-0.6-1.2-0.9s-0.8-0.6-1.2-0.9c0,0,0,0,0,0c-0.5-0.3-0.9-0.7-1.3-1.1
			c-0.1-0.1-0.2-0.1-0.2-0.2c-1.7-1.5-3.3-3.3-4.7-5.2c-0.9-1.2-1.5-2.4-2.1-3.8c-2.2-5.8-1.6-12.9-1-18.7c0.3-2.8,0.7-5.6,1.1-8.3
			c0.8-5.4,2.5-10.6,5.1-15.3c1.2-2.1,2.5-4,4.1-5.9h0c0.6-0.7,1.3-1.4,1.9-2.1c1.7-1.6,3.5-3.1,5.5-4.4c2.9-1.8,6.1-3.4,9.6-4.9
			c0.4-0.2,0.9-0.4,1.4-0.5c0,0,0,0,0,0c1-0.4,2.1-0.8,3.2-1.2c0.7-0.2,1.4-0.5,2.1-0.7c0,0,0,0,0,0c5.2-1.7,10.9-2.9,16.7-3.7h0
			c5-0.7,10.2-1,15.4-0.9c2.5,0,5,0.1,7.4,0.2c4.8,0.2,9.5,0.6,14.2,1.6h0c1.8,0.4,3.6,0.8,5.3,1.3h0c0.5,0.1,1,0.3,1.4,0.4
			c4.7,1.6,9.2,3.9,13.2,7.3c1,0.9,2,1.8,3,2.8c0.3,0.3,0.6,0.6,0.8,0.9c0,0,0,0,0,0c0.1,0.1,0.2,0.2,0.3,0.3
			c0.1,0.1,0.2,0.3,0.3,0.4c0.3,0.3,0.6,0.7,0.9,1v0h0c0,0,0,0,0,0c0.3,0.4,0.6,0.8,0.9,1.2c0.2,0.2,0.3,0.4,0.5,0.6c0,0,0,0,0,0
			c0,0.1,0.1,0.1,0.1,0.2c0.2,0.3,0.3,0.5,0.5,0.8c0.2,0.2,0.3,0.5,0.5,0.8c0.1,0.1,0.2,0.3,0.3,0.5c0.1,0.1,0.2,0.3,0.3,0.4
			c0.1,0.2,0.2,0.3,0.3,0.5c0.2,0.4,0.4,0.7,0.7,1.1v0c0.2,0.3,0.3,0.5,0.4,0.8c0.8,1.5,1.6,3,2.3,4.5c0.5,1.1,1,2.3,1.5,3.3
			c0.2,0.6,0.4,1.1,0.7,1.6c0.2,0.5,0.4,1.1,0.6,1.6c0.2,0.5,0.4,1.1,0.5,1.6c0.2,0.6,0.4,1.3,0.6,1.9s0.3,1.3,0.5,1.9
			c0.3,1.2,0.5,2.4,0.7,3.6c0,0.3,0.1,0.5,0.1,0.8v0c0,0.2,0.1,0.5,0.1,0.8c0,0.1,0,0.1,0,0.2c0,0.1,0,0.1,0,0.2c0,0.1,0,0.2,0,0.3
			c0,0.1,0,0.2,0,0.3C282.6,136.8,282.7,137.3,282.7,137.8z"/>
	</g>
	<g>
		<g>
			<path class="st14" d="M207.7,134.9l-0.3-2.7c-0.1-1.5-1-1.6-1.6-0.1l-0.2,0.7c-0.4,2-1.1,2.6-3.2,2.2l-38.6-5.7
				c-1.6-0.3-1.6,2.6-0.4,2.8l41.2,5.7C206.4,137.9,207.7,137,207.7,134.9z"/>
		</g>
		<g>
			<path class="st15" d="M206.1,137.9c-1.7,28.8-45,24.5-41.8-5.8L206.1,137.9z"/>
		</g>
		<g class="st16">
			<path class="st15" d="M205.9,139.5c-3.2,26.5-43.5,22.3-41.7-6.1C165.8,157.3,199.8,160.9,205.9,139.5z"/>
		</g>
		<g>
			<path class="st14" d="M200.2,136.8c-1.2,20.8-32.4,17.6-30.1-4.2L200.2,136.8z"/>
		</g>
		<g>
			<path class="st4" d="M175.4,138.1c-5.5,2-7.8,6-5.4,6.5c2.4,0.6,6.2-3.6,7.1-4.4C178.8,138.6,178.3,137.1,175.4,138.1z"/>
		</g>
		<g>
			<path class="st4" d="M176.8,144c-3.8,1.4-5.4,4.1-3.7,4.5c1.6,0.4,4.3-2.5,4.9-3C179.2,144.3,178.8,143.3,176.8,144z"/>
		</g>
	</g>
	<g>
		<g>
			<path class="st14" d="M269.1,131.7l-41.2,5.7c-2.6,0.3-3.6-0.5-3.4-3.3c0-0.6,0.2-2.2,0.2-2.2c0.1-1.7,1.3-1,1.5-0.1l0,0
				c0.4,3,2.2,3.1,4.1,2.8l38.5-5.7C271,128.6,271.1,131.5,269.1,131.7z"/>
		</g>
		<g>
			<path class="st15" d="M226.1,137.6c1.7,28.8,45,24.5,41.8-5.8L226.1,137.6z"/>
		</g>
		<g class="st16">
			<path class="st15" d="M226.6,141.4c7.2,19.9,40.1,15.8,41.4-7.8C269.5,160.9,231.6,165.5,226.6,141.4z"/>
		</g>
		<g>
			<path class="st14" d="M232,136.6c1.2,20.8,32.4,17.6,30.1-4.2L232,136.6z"/>
		</g>
		<g>
			<path class="st4" d="M256.8,137.9c5.5,2,7.8,6,5.4,6.5c-2.4,0.6-6.2-3.6-7.1-4.4C253.4,138.4,253.8,136.9,256.8,137.9z"/>
		</g>
		<g>
			<path class="st4" d="M255.4,143.8c3.8,1.4,5.4,4.1,3.7,4.5c-1.6,0.4-4.3-2.5-4.9-3C253,144.1,253.4,143.1,255.4,143.8z"/>
		</g>
	</g>
	<g>
		<path class="st11" d="M220.1,145.3c-0.5-1.2-8.2-1.2-9,0.3c-0.6,1.2,2.5,5.4,4.5,5.4C217.1,151.1,220.8,146.9,220.1,145.3z"/>
	</g>
	<g class="st17">
		<path class="st11" d="M215.6,151.1c-1.5,0-3.8-2.6-4.4-4.3c1,1.3,2.4,2.6,3.4,2.6c1.2,0,3.8-2.7,4.4-4.5c0.6,0.1,1,0.3,1.1,0.6
			C220.8,146.9,217.1,151.1,215.6,151.1z"/>
	</g>
	<g class="st8">
		<path class="st14" d="M290.1,180.4c-1.4,0-2.8-0.2-4-0.9c-0.6-0.3-1-0.7-1.2-1.1c-0.2-0.3-0.3-0.6-0.3-0.8
			c-0.1-0.3-0.2-0.5-0.3-0.7c-0.5-0.8-1.5-0.8-2.6-0.9c-0.5,0-0.9-0.1-1.4-0.1c-0.4-0.1-0.7-0.2-1-0.3c-0.5-0.1-0.9-0.3-1.3-0.3
			c-0.5,0-1.1,0.1-1.6,0.2c-0.6,0.1-1.2,0.3-1.9,0.2c-0.8-0.1-1.6-0.5-2.3-0.8c-0.7-0.3-1.3-0.7-1.9-0.7c-0.6-0.1-1.3,0-1.9,0.2
			c-0.4,0.1-0.9,0.2-1.3,0.2c-1.9,0.1-3.6-0.7-5.3-1.6c-0.3-0.1-0.5-0.3-0.8-0.4c-0.6-0.3-1.3-0.6-2.2-0.8c0,0,0,0,0,0
			c-1.7-0.5-3.8-1-6.7-1.5c-0.8-0.1-1.6-0.3-2.4-0.4c-0.9-0.1-1.8-0.3-2.7-0.4l-2.2-0.3c-0.9-0.1-1.7-0.3-2.3-0.4
			c-0.1,0-0.1,0-0.1,0c-0.2,0-0.3-0.2-0.2-0.4c0-0.2,0.2-0.3,0.4-0.3l-0.1,0.3l0.1-0.3c0.7,0.1,1.5,0.3,2.4,0.4l2.2,0.3
			c0.9,0.1,1.8,0.3,2.7,0.4c0.8,0.1,1.6,0.3,2.4,0.4c2.9,0.5,5.1,1,6.8,1.5c0,0,0,0,0,0c0.9,0.3,1.7,0.6,2.3,0.9
			c0.3,0.1,0.5,0.3,0.8,0.4c1.6,0.8,3.2,1.6,5,1.5c0.4,0,0.8-0.1,1.3-0.2c0.7-0.1,1.4-0.3,2.1-0.2c0.8,0.1,1.5,0.5,2.2,0.8
			c0.7,0.4,1.3,0.7,2,0.8c0.5,0,1.1-0.1,1.7-0.2c0.6-0.1,1.2-0.2,1.8-0.2c0.5,0,1,0.2,1.5,0.3c0.3,0.1,0.6,0.2,1,0.3
			c0.4,0.1,0.8,0.1,1.3,0.1c1.2,0.1,2.5,0.2,3.1,1.2c0.2,0.3,0.3,0.6,0.4,0.9c0.1,0.3,0.2,0.5,0.3,0.7c0.2,0.3,0.5,0.6,1,0.8
			c2,1.1,4.4,0.8,7,0.5c0.6-0.1,1.3-0.2,1.5-0.7c0.2-0.4-0.2-0.9-0.6-1.1c-0.6-0.2-1.2,0-1.6,0.1c-0.2,0.1-0.4,0-0.4-0.2
			s0-0.4,0.2-0.4c0.5-0.2,1.4-0.4,2.1-0.1c0.7,0.3,1.3,1.2,0.9,2c-0.3,0.8-1.2,1-2,1.1C292.5,180.3,291.3,180.4,290.1,180.4z
			 M301.2,169.2c-0.1,0-0.1,0-0.2,0c-0.2,0-0.3-0.2-0.3-0.3s0.2-0.3,0.3-0.3c0.1,0,0.1,0,0.2,0c0.8,0,1.7-0.1,2.3-0.5
			c0.4-0.2,0.7-0.7,0.7-1.1c0-0.2,0-0.5-0.2-0.8c-0.3-0.4-0.7-0.5-1.1-0.6c-2.5-0.7-5.3-0.5-7.7,0.7c-0.2,0.1-0.4,0.2-0.5,0.3
			c-0.8,0.4-1.6,0.8-2.5,0.8c-0.8,0-1.5-0.3-2.2-0.6c-0.6-0.3-1.2-0.5-1.9-0.5c-0.8,0-1.6,0.3-2.4,0.7c-0.4,0.2-0.8,0.3-1.1,0.5
			c-2.2,0.8-4.9,0.4-6.7-1.1l-0.2-0.1c-0.5-0.4-1-0.8-1.5-0.7c-0.2,0-0.4,0.2-0.6,0.3c-0.3,0.2-0.6,0.5-0.9,0.7
			c-0.9,0.7-1.8,1.5-3,1.6c-1.1,0.1-2.1-0.3-3.1-0.6l-0.1-0.1c-0.4-0.2-0.9-0.3-1.4-0.5c0,0,0,0-0.1,0c-0.9-0.3-2-0.5-3-0.8
			c-0.9-0.2-1.9-0.4-2.9-0.5c-5.6-0.9-12.8-1.4-17.4-1.2c-0.2,0-0.3-0.1-0.4-0.3s0.1-0.3,0.3-0.4c4.6-0.2,11.8,0.3,17.5,1.2
			c1,0.2,2,0.4,2.9,0.6c1.1,0.2,2.2,0.5,3.1,0.8c0,0,0,0,0.1,0c0.6,0.2,1,0.3,1.4,0.5l0.1,0.1c0.9,0.4,1.9,0.7,2.8,0.6
			c1-0.1,1.8-0.8,2.7-1.5c0.3-0.3,0.6-0.5,1-0.7c0.3-0.2,0.5-0.3,0.9-0.4c0.8-0.2,1.5,0.4,2,0.8l0.2,0.1c1.7,1.3,4.1,1.7,6.1,1
			c0.4-0.1,0.7-0.3,1.1-0.5c0.9-0.4,1.8-0.8,2.7-0.7c0.7,0,1.4,0.3,2.1,0.6c0.7,0.3,1.3,0.5,1.9,0.5c0,0,0,0,0,0
			c0.8,0,1.5-0.4,2.2-0.8c0.2-0.1,0.4-0.2,0.5-0.3c2.5-1.2,5.5-1.5,8.2-0.7c0.5,0.1,1.1,0.4,1.5,0.9c0.3,0.4,0.4,0.8,0.3,1.3
			c-0.1,0.6-0.5,1.2-1,1.6C303.1,169.2,302.1,169.2,301.2,169.2z M247.7,160.6c-1.4,0-2.8-0.1-4.3-0.4c-0.2,0-0.3-0.2-0.3-0.4
			c0-0.2,0.2-0.3,0.4-0.3c4.8,1,8.6,0.1,12.7-0.9c2.3-0.5,4.7-1.1,7.5-1.4c0.7-0.1,1.4-0.1,2.1-0.2l1-0.1c1.3-0.1,2.6-0.2,4-0.4
			c1.9-0.3,3.4-0.6,4.8-1.1l0.4-0.1c0.6-0.2,1.3-0.5,1.9-0.5v0c0,0,0.1,0,0.1,0c1-0.1,1.9,0.3,2.4,1c0.1,0.1,0.1,0.2,0.2,0.3
			c0.1,0.1,0.1,0.3,0.2,0.3c0.3,0.3,0.8,0.2,1.1,0c0.2-0.1,0.4-0.3,0.7-0.4c0.2-0.2,0.4-0.3,0.7-0.5c1.3-0.8,3.2-0.4,4.1,0.8
			c0.2,0.3,0.4,0.6,0.5,0.9c0.3,0.5,0.5,1,1,1.2c1.1,0.6,2.4-0.9,2.9-1.6c1.3-1.7,2.5-2.4,3.6-1.9c0.5,0.2,0.8,0.6,1.2,0.9
			c0.1,0.1,0.2,0.3,0.4,0.4c1.5,1.4,3.9,1.2,6,0.9c0.8-0.1,1.7-0.2,2.4-0.6c0.6-0.3,1.3-0.9,1.3-1.7c0.1-1.3-1.4-2.4-2.8-2.8
			c-0.5-0.2-1.1-0.4-1.7-0.3c-0.5,0.1-1,0.4-1.1,0.9c0,0.3,0,0.5,0.2,0.7c0.3,0.5,1,0.8,1.8,1c0.2,0,0.3,0.2,0.3,0.4
			s-0.2,0.3-0.4,0.3c-0.7-0.1-1.7-0.5-2.2-1.2c-0.3-0.4-0.4-0.8-0.3-1.2c0.1-0.7,0.8-1.3,1.7-1.4c0.7-0.1,1.5,0.1,2.1,0.3
			c1.7,0.6,3.4,1.8,3.3,3.6c-0.1,0.9-0.7,1.7-1.7,2.2c-0.8,0.4-1.8,0.6-2.6,0.7c-2.3,0.3-4.8,0.5-6.5-1.1c-0.1-0.1-0.3-0.3-0.4-0.4
			c-0.3-0.3-0.6-0.6-0.9-0.8c-0.8-0.3-1.8,0.3-2.8,1.7c-1.2,1.7-2.6,2.3-3.7,1.8c-0.6-0.3-1-0.9-1.3-1.5c-0.2-0.3-0.3-0.5-0.5-0.8
			c-0.7-1-2.2-1.2-3.2-0.7c-0.2,0.1-0.4,0.3-0.6,0.4c-0.2,0.2-0.5,0.4-0.7,0.5c-0.6,0.3-1.4,0.4-1.9-0.1c-0.2-0.1-0.3-0.3-0.4-0.5
			c0-0.1-0.1-0.2-0.1-0.2c-0.4-0.6-1.2-0.7-1.8-0.7c-0.7,0.1-1.2,0.3-1.8,0.5l-0.4,0.1c-1.4,0.5-3,0.9-4.9,1.1
			c-1.4,0.2-2.7,0.3-4,0.4l-1,0.1c-0.7,0.1-1.4,0.1-2.1,0.2c-2.7,0.3-5.1,0.8-7.4,1.4C253.5,159.9,250.8,160.6,247.7,160.6z"/>
	</g>
	<g class="st18">
		<path class="st11" d="M216.4,145.1c-1.3-0.4-3.3-0.1-4.5,0.7c-0.2,0.2-0.2,0.6,0.2,0.6c0.7,0,1.3-0.2,2-0.4
			c0.7-0.1,1.5-0.2,2.2-0.2C216.6,145.8,216.7,145.2,216.4,145.1z"/>
	</g>
	<g>
		<g>
			<g>
				<defs>
					<ellipse id="SVGID_1_" cx="183.4" cy="160.9" rx="15.5" ry="10.6"/>
				</defs>
				<clipPath id="SVGID_2_">
					<use xlink:href="#SVGID_1_"  style="overflow:visible;"/>
				</clipPath>
				<rect x="167.9" y="150.3" class="st19" width="30.9" height="21.2"/>
				
					<ellipse transform="matrix(0.9995 -3.223098e-02 3.223098e-02 0.9995 -5.0911 5.9933)" class="st19" cx="183.4" cy="160.9" rx="14" ry="9.7"/>
				
					<ellipse transform="matrix(0.9995 -3.223108e-02 3.223108e-02 0.9995 -5.0911 5.9933)" class="st19" cx="183.4" cy="160.9" rx="8.2" ry="5.7"/>
			</g>
		</g>
		<g>
			<g>
				<defs>
					<ellipse id="SVGID_3_" cx="251.6" cy="159.1" rx="15.5" ry="10.6"/>
				</defs>
				<clipPath id="SVGID_4_">
					<use xlink:href="#SVGID_3_"  style="overflow:visible;"/>
				</clipPath>
				<rect x="236.2" y="148.5" class="st20" width="30.9" height="21.2"/>
				
					<ellipse transform="matrix(0.9995 -3.223101e-02 3.223101e-02 0.9995 -4.9988 8.1933)" class="st20" cx="251.6" cy="159.1" rx="14" ry="9.7"/>
				
					<ellipse transform="matrix(0.9995 -3.223095e-02 3.223095e-02 0.9995 -4.9987 8.1933)" class="st20" cx="251.6" cy="159.1" rx="8.2" ry="5.7"/>
			</g>
		</g>
	</g>
	<g class="st21">
		<path class="st13" d="M203.9,132.9c-3.6,0-7.3-1.1-10.8-1.9c-3.4-0.7-6.8-1.6-10.2-2c-0.5-0.1-0.5,0.7-0.1,0.8
			c3.6,1.1,7.4,1.7,11.1,2.5c1.8,0.4,3.5,0.8,5.3,1.1c1.5,0.3,3.3,0.9,4.8,0.4C204.5,133.7,204.4,132.9,203.9,132.9z"/>
	</g>
	<g class="st21">
		<path class="st13" d="M268.4,127.2c-6.6,0.2-13.3,1.6-19.9,2.5c-3.4,0.5-6.7,1-10.1,1.4c-1.8,0.3-10.7,2.3-10.6-0.9
			c0-0.6-0.9-0.7-1-0.1c-0.5,3.2,3.7,3.1,5.8,2.9c3.9-0.3,7.7-1,11.6-1.6c8-1.1,16.1-2.6,24.2-3.2
			C269.1,128.2,269.1,127.2,268.4,127.2z"/>
	</g>
	<g>
		<path class="st0" d="M205.9,94.2c2.9-4.2,10.2-10.1,12.2-8.6c0.5,0.5-2,2.8-2.4,4.5c2.7-1.9,8.9-6.4,8.9-4.5
			c0.1,0.9-1.3,2.7-1.9,4.1c1.5-1.4,8.3-5.3,8.5-3.4c0.3,2,0.1,4-0.4,5.9c-5,0.6-9.9,1.2-14.9,1.9L205.9,94.2z"/>
	</g>
	<g class="st8">
		<path class="st10" d="M282.7,137.8c0.2,6.6-1.6,12.4-4.7,17.4c-2,3.2-4.5,6-7.4,8.5c-0.6,0.5-1.1,1-1.7,1.4
			c-0.6,0.5-1.2,0.9-1.8,1.3c-0.5,0.3-0.9,0.7-1.4,1c-0.5,0.3-1,0.6-1.4,0.9c-1.5,0.9-3.1,1.8-4.7,2.6c-0.1,0-0.2,0.1-0.3,0.1
			c-0.2,0.1-0.4,0.2-0.6,0.2h0c-0.1,0-0.3,0.1-0.4,0.1c-0.1,0-0.2,0.1-0.4,0.1c-0.4,0.1-0.8,0.3-1.2,0.4c-0.3,0.1-0.6,0.2-0.9,0.2
			c-0.2,0.1-0.5,0.1-0.8,0.2c-0.2,0-0.3,0.1-0.5,0.1c0,0,0,0,0,0c-0.4,0.1-0.9,0.2-1.4,0.3c-0.6,0.1-1.2,0.2-1.8,0.4
			c-1.1,0.2-2.2,0.4-3.4,0.6c-0.5,0.1-1,0.1-1.5,0.2c0,0-0.1,0-0.1,0c0,0-0.1,0-0.1,0c0,0,0,0,0,0c-0.4,0.1-0.8,0.1-1.3,0.2
			c-0.5,0.1-1,0.1-1.6,0.2l-0.2,0H243v0c-0.8,0.1-1.6,0.2-2.3,0.3c-0.5,0.1-0.9,0.1-1.4,0.2c-0.4,0-0.9,0.1-1.3,0.1
			c-0.3,0-0.7,0.1-1,0.1c-0.7,0.1-1.4,0.1-2.1,0.2c-0.6,0.1-1.2,0.1-1.8,0.2c-0.3,0-0.6,0.1-0.9,0.1c-0.9,0.1-1.8,0.1-2.7,0.2
			c-0.6,0-1.2,0.1-1.8,0.1c-0.8,0.1-1.7,0.1-2.5,0.2c-0.4,0-0.8,0-1.1,0.1c-0.3,0-0.7,0-1,0c-0.6,0-1.1,0-1.7,0.1
			c-0.4,0-0.9,0-1.3,0.1c-0.6,0-1.1,0-1.7,0c-0.4,0-0.8,0-1.2,0c-0.5,0-1,0-1.4,0c-8.2,0.1-16-0.2-22-1.1c-0.6-0.1-1.2-0.2-1.8-0.3
			c-0.7-0.1-1.5-0.2-2.2-0.3c0,0-0.1,0-0.1,0c-0.6-0.1-1.2-0.1-1.8-0.2h0c-0.5-0.1-1-0.1-1.5-0.2c-0.5-0.1-1-0.1-1.5-0.2
			c-0.4-0.1-0.9-0.1-1.3-0.2c-0.1,0-0.1,0-0.2,0c-0.5-0.1-1-0.1-1.5-0.2c-0.5-0.1-1-0.2-1.5-0.3c-0.5-0.1-0.9-0.2-1.4-0.3
			c0,0-0.1,0-0.1,0c-0.4-0.1-0.8-0.2-1.2-0.3c-0.1,0-0.1,0-0.2,0c-3-0.9-5.8-2.2-8.4-3.8c-0.4-0.3-0.8-0.6-1.2-0.9
			c-0.4-0.3-0.8-0.6-1.2-0.9c0,0,0,0,0,0c1.5,0.8,4.1,1.7,7.6,2.4c0,0,0,0,0,0c2.2,0.5,4.9,1,7.7,1.4c1,0.1,1.9,0.3,2.9,0.4h0
			c1.5,0.2,3.1,0.4,4.7,0.6c0.1,0,0.2,0,0.3,0v0c1.3,0.1,2.6,0.3,3.9,0.4c15,1.3,33.3,1.3,48.5-1.5l0.7-0.1c1.4-0.3,2.7-0.5,4-0.9
			c0.5-0.1,0.9-0.2,1.4-0.3c0.3-0.1,0.5-0.1,0.8-0.2c4.2-1.1,8.1-2.5,11.4-4.3c2.2-1.2,4.2-2.5,5.9-3.9h0c1.5-1.3,2.9-2.8,4-4.2
			c10.7-13.6,6.6-32.1,2.9-42.4v0c-0.2-0.5-0.3-0.9-0.5-1.4c-1.4-3.6-2.6-6-2.7-6.3c0.3,0.4,0.6,0.8,0.9,1.2
			c0.2,0.2,0.3,0.4,0.5,0.6c0,0,0,0,0,0c0,0.1,0.1,0.1,0.1,0.2c0.2,0.3,0.3,0.5,0.5,0.8c0.2,0.2,0.3,0.5,0.5,0.8
			c0.1,0.1,0.2,0.3,0.3,0.5c0.1,0.1,0.2,0.3,0.3,0.4c0.1,0.2,0.2,0.3,0.3,0.5c0.2,0.4,0.4,0.7,0.7,1.1v0c0.2,0.3,0.3,0.5,0.4,0.8
			c0.8,1.5,1.6,3,2.3,4.5c0.5,1.1,1,2.3,1.5,3.3c0.2,0.6,0.4,1.1,0.7,1.6c0.2,0.5,0.4,1.1,0.6,1.6c0.2,0.5,0.4,1.1,0.5,1.6
			c0.2,0.6,0.4,1.3,0.6,1.9s0.3,1.3,0.5,1.9c0.3,1.2,0.5,2.4,0.7,3.6c0,0.3,0.1,0.5,0.1,0.8v0c0,0.2,0.1,0.5,0.1,0.8
			c0,0.1,0,0.1,0,0.2c0,0.1,0,0.1,0,0.2c0,0.1,0,0.2,0,0.3c0,0.1,0,0.2,0,0.3C282.6,136.8,282.7,137.3,282.7,137.8z"/>
	</g>
	<g class="st8">
		<path class="st14" d="M150,180.4c-1.2,0-2.4-0.2-3.5-0.3c-0.8-0.1-1.7-0.3-2-1.1c-0.3-0.8,0.2-1.7,0.9-2c0.8-0.3,1.6-0.1,2.1,0.1
			c0.2,0.1,0.3,0.3,0.2,0.4s-0.3,0.3-0.4,0.2c-0.3-0.1-1-0.3-1.6-0.1c-0.4,0.2-0.7,0.7-0.6,1.1c0.2,0.5,0.9,0.6,1.5,0.7
			c2.7,0.4,5.1,0.6,7-0.5c0.5-0.2,0.8-0.5,1-0.8c0.1-0.2,0.2-0.5,0.3-0.7c0.1-0.3,0.2-0.6,0.4-0.9c0.7-1.1,1.9-1.1,3.1-1.2
			c0.4,0,0.9-0.1,1.3-0.1c0.3-0.1,0.6-0.2,1-0.3c0.5-0.1,1-0.3,1.5-0.3c0.6-0.1,1.2,0.1,1.8,0.2c0.6,0.1,1.1,0.2,1.7,0.2
			c0.7-0.1,1.3-0.4,2-0.8c0.7-0.3,1.4-0.7,2.2-0.8c0.7-0.1,1.4,0,2.1,0.2c0.4,0.1,0.8,0.2,1.3,0.2c1.6,0.1,3-0.6,4.5-1.2
			c0.4-0.2,0.8-0.4,1.2-0.6l0.1-0.1c0.6-0.3,1.2-0.5,1.9-0.7c0,0,0,0,0,0c0.4-0.1,0.8-0.3,1.2-0.4c2.5-0.7,5.6-1.2,8.3-1.7l0.8-0.1
			c0.4-0.1,0.7-0.1,1.1-0.2c0.4-0.1,0.8-0.1,1.1-0.2c1.8-0.3,3.3-0.5,4.4-0.7c0.2,0,0.4,0.1,0.4,0.3s-0.1,0.4-0.3,0.4
			c-1.1,0.2-2.6,0.5-4.4,0.7c-0.4,0.1-0.7,0.1-1.1,0.2c-0.3,0.1-0.7,0.1-1.1,0.2l-0.8,0.1c-2.7,0.4-5.8,1-8.3,1.7
			c-0.4,0.1-0.8,0.2-1.2,0.4c0,0,0,0,0,0c-0.6,0.2-1.2,0.4-1.8,0.7l-0.1,0.1c-0.4,0.2-0.8,0.4-1.2,0.6c-1.5,0.7-3.1,1.4-4.8,1.3
			c-0.5,0-0.9-0.1-1.3-0.2c-0.7-0.1-1.3-0.2-1.9-0.2c-0.7,0.1-1.3,0.4-1.9,0.7c-0.7,0.4-1.4,0.7-2.3,0.8c-0.7,0.1-1.3-0.1-1.9-0.2
			c-0.6-0.1-1.1-0.2-1.6-0.2c-0.4,0-0.9,0.2-1.3,0.3c-0.3,0.1-0.7,0.2-1,0.3c-0.4,0.1-0.9,0.1-1.3,0.1c-1.1,0.1-2.1,0.1-2.6,0.9
			c-0.1,0.2-0.2,0.5-0.3,0.7c-0.1,0.3-0.2,0.6-0.3,0.9c-0.2,0.4-0.7,0.8-1.2,1.1C152.8,180.2,151.4,180.4,150,180.4z M138.9,169.2
			c-0.9,0-1.9-0.1-2.7-0.6c-0.5-0.3-0.9-0.9-1-1.6c-0.1-0.5,0-1,0.3-1.3c0.4-0.5,1-0.8,1.5-0.9c2.7-0.8,5.6-0.5,8.2,0.7
			c0.2,0.1,0.4,0.2,0.5,0.3c0.7,0.4,1.5,0.8,2.2,0.8c0.7,0,1.3-0.3,2-0.5c0.7-0.3,1.3-0.6,2.1-0.6c1-0.1,1.9,0.4,2.7,0.7
			c0.4,0.2,0.7,0.3,1.1,0.4c2,0.7,4.4,0.3,6.1-1l0.2-0.1c0.6-0.5,1.2-1,2.1-0.8c0.3,0.1,0.6,0.2,0.8,0.4c0.2,0.1,0.4,0.3,0.6,0.4
			l0.4,0.3c0.9,0.7,1.7,1.3,2.7,1.5c0.8,0.1,1.5-0.1,2.3-0.4c0,0,0,0,0,0l0.7-0.3c6-2.3,18.9-3.4,25.1-3.1c0.2,0,0.3,0.2,0.3,0.4
			c0,0.2-0.2,0.3-0.4,0.3c-6.1-0.3-18.9,0.7-24.8,3.1l-0.7,0.3c0,0,0,0-0.1,0c-0.8,0.3-1.6,0.5-2.5,0.4c-1.2-0.1-2.1-0.9-3-1.6
			L165,166c-0.2-0.1-0.4-0.3-0.5-0.4c-0.2-0.1-0.4-0.3-0.6-0.3c-0.5-0.1-1,0.3-1.5,0.7l-0.2,0.1c-1.9,1.4-4.5,1.9-6.7,1.1
			c-0.4-0.1-0.8-0.3-1.1-0.5c-0.8-0.4-1.6-0.7-2.4-0.7c-0.6,0-1.2,0.3-1.9,0.5c-0.7,0.3-1.5,0.6-2.3,0.6c-0.9,0-1.7-0.4-2.5-0.9
			c-0.2-0.1-0.3-0.2-0.5-0.3c-2.4-1.2-5.2-1.4-7.7-0.7c-0.4,0.1-0.9,0.3-1.1,0.6c-0.2,0.3-0.2,0.6-0.2,0.8c0.1,0.4,0.4,0.9,0.7,1.1
			c0.7,0.5,1.7,0.5,2.5,0.5c0,0,0,0,0,0c0.2,0,0.3,0.1,0.3,0.3c0,0.2-0.1,0.3-0.3,0.3C139,169.2,138.9,169.2,138.9,169.2z
			 M192.4,160.6c-3.1,0-5.8-0.6-8.7-1.3c-2.3-0.5-4.7-1.1-7.4-1.4c-0.9-0.1-1.9-0.2-2.8-0.2c-1.5-0.1-3-0.2-4.5-0.5
			c-1.9-0.3-3.4-0.6-4.8-1.1l-0.3-0.1c-0.6-0.2-1.2-0.5-1.9-0.5c-0.6-0.1-1.4,0.1-1.8,0.7c-0.1,0.1-0.1,0.2-0.1,0.2
			c-0.1,0.2-0.2,0.3-0.4,0.5c-0.3,0.3-0.8,0.4-1.3,0.3c-0.2,0-0.4-0.1-0.6-0.2c-0.3-0.1-0.5-0.3-0.7-0.5c-0.2-0.1-0.4-0.3-0.6-0.4
			c-1-0.6-2.5-0.3-3.2,0.7c-0.2,0.2-0.3,0.5-0.5,0.8c-0.3,0.6-0.6,1.2-1.3,1.5c-1.1,0.6-2.5-0.1-3.7-1.8c-1.1-1.4-2-2-2.9-1.7
			c-0.3,0.1-0.6,0.4-0.9,0.8c-0.1,0.2-0.3,0.3-0.4,0.4c-1.6,1.5-4.1,1.4-6.5,1.1c-0.8-0.1-1.8-0.2-2.6-0.7c-1-0.5-1.6-1.3-1.7-2.2
			c-0.2-1.7,1.6-3,3.3-3.6c0.6-0.2,1.3-0.4,2.1-0.3c0.8,0.1,1.5,0.7,1.7,1.4c0.1,0.4,0,0.9-0.3,1.2c-0.5,0.7-1.5,1.1-2.2,1.2
			c-0.2,0-0.4-0.1-0.4-0.3c0-0.2,0.1-0.4,0.3-0.4c0.7-0.1,1.5-0.5,1.8-1c0.2-0.2,0.2-0.5,0.2-0.7c-0.1-0.5-0.6-0.8-1.1-0.9
			c-0.6-0.1-1.2,0.1-1.7,0.3c-1.5,0.5-3,1.5-2.8,2.8c0.1,0.8,0.7,1.4,1.3,1.7c0.7,0.4,1.6,0.5,2.4,0.6c2.1,0.3,4.5,0.5,6-0.9
			c0.1-0.1,0.3-0.3,0.4-0.4c0.3-0.4,0.7-0.7,1.2-0.9c1.1-0.4,2.4,0.2,3.6,1.9c0.5,0.7,1.7,2.1,2.9,1.6c0.4-0.2,0.7-0.7,1-1.2
			c0.2-0.3,0.3-0.6,0.5-0.8c0.9-1.2,2.8-1.6,4.1-0.8c0.2,0.1,0.4,0.3,0.7,0.5c0.2,0.2,0.4,0.3,0.7,0.4c0.1,0.1,0.3,0.1,0.4,0.1
			c0.2,0,0.5,0,0.7-0.1c0.1-0.1,0.2-0.2,0.2-0.3c0.1-0.1,0.1-0.2,0.2-0.3c0.6-0.8,1.6-1,2.4-1c0.7,0.1,1.4,0.3,2,0.6l0.3,0.1
			c1.3,0.5,2.8,0.8,4.6,1.1c1.5,0.2,3,0.3,4.5,0.4c0.9,0.1,1.9,0.1,2.8,0.2c2.8,0.3,5.2,0.8,7.5,1.4c4,0.9,7.9,1.8,12.7,0.9
			c0.2,0,0.4,0.1,0.4,0.3s-0.1,0.4-0.3,0.4C195.2,160.5,193.7,160.6,192.4,160.6z"/>
	</g>
	<g class="st8">
		<path class="st10" d="M246.1,174c-0.9-1.1-1.8-2.2-2.9-3.2c-0.3-0.3-0.5-0.5-0.8-0.8c-1.1-1.1-2.3-2.1-3.5-3
			c-4.3-3.4-9.4-6-14.7-7.1c-0.1,0.6-0.3,1-0.6,1.1c-0.6,0.2-1.5-0.7-2.2-1.6c-3.3-0.4-6.7-0.1-10.1,0.9c-0.4,0.7-0.9,1.2-1.4,1.2
			c-0.2,0-0.4-0.2-0.6-0.5c-0.9,0.3-1.8,0.8-2.7,1.2c-1.9,1-3.8,2.2-5.7,3.6c-0.4,0.3-0.7,0.6-1.1,0.9c-3,2.5-5.6,5.3-8.2,8.2
			c-2.5,2.9-5.1,5.7-7.4,8.8c0,0-0.1,0.1-0.1,0.1c0.4-1.7,2.5-7.6,2.7-9c0,0,0.9-0.3,0.9-0.3c-0.6-0.1,0.6,0.1,0,0
			c0.6-0.8,1.3-1.7,1.9-2.5c0.1-0.2,0.3-0.3,0.4-0.5c0.5-0.6,0.9-1.1,1.4-1.7c0.2-0.3,0.5-0.5,0.7-0.8c0.7-0.7,1.4-1.4,2.1-2.1
			c1.2-1.2,2.5-2.4,3.9-3.4c0.2-0.1,0.3-0.3,0.5-0.4c2.9-2.2,5.9-4,8.9-5.2c-1.2-1-1.1-1.9-1.1-1.9l19.4-0.9c0,0.5-0.1,1-0.3,1.5
			c3.8,0.9,7.4,2.4,10.8,4.4c3.7,2.2,7,4.9,9.9,7.9c0.1,0.1,0.2,0.2,0.3,0.3c0.2,0.2,0.5,0.5,0.7,0.7c0.8,0.9,1.6,1.9,2.4,2.9
			c1.6-0.5,3.2-0.6,4.8-0.3c-0.4,0.1-0.9,0.2-1.4,0.3c-0.6,0.1-1.2,0.2-1.8,0.4c-0.8,0.2-1.7,0.3-2.6,0.5c-0.3,0-0.5,0.1-0.8,0.1
			c-0.5,0.1-1,0.1-1.5,0.2c0,0-0.1,0-0.1,0C246.2,174,246.2,174,246.1,174z"/>
	</g>
	<g>
		<path class="st22" d="M329.6,206.7v114.1c0,10.2-8,18.5-17.9,18.5H122.7c-9.9,0-17.9-8.3-17.9-18.5V206.7c0-10.2,8-18.5,17.9-18.5
			h188.9C321.6,188.1,329.6,196.4,329.6,206.7z"/>
	</g>
	<g class="st23">
		<path class="st24" d="M308.8,329.7H125.7c-7.5,0-13.5-6.1-13.5-13.5V206.4c0-7.5,6.1-13.5,13.5-13.5h183.1
			c7.5,0,13.5,6.1,13.5,13.5v109.7C322.3,323.6,316.2,329.7,308.8,329.7z"/>
	</g>
	<g>
		<g>
			<circle cx="145.2" cy="215.4" r="1.9"/>
		</g>
		<g>
			<circle cx="154.2" cy="215.4" r="1.9"/>
		</g>
		<g>
			<circle cx="163.1" cy="215.4" r="1.9"/>
		</g>
	</g>
	<g class="st25">
		<path class="st26" d="M299.2,210.8v98c0,4-3.3,7.3-7.3,7.3H145.6c-4,0-7.3-3.3-7.3-7.3v-98c0-4,3.3-7.3,7.3-7.3h146.3
			C295.9,203.5,299.2,206.7,299.2,210.8z"/>
	</g>
	<g>
		<path class="st22" d="M299.2,210.8v10.5H138.3v-10.5c0-4,3.3-7.3,7.3-7.3h146.3C295.9,203.5,299.2,206.7,299.2,210.8z"/>
	</g>
	<g>
		<g>
			<circle class="st4" cx="148.2" cy="212.4" r="1.9"/>
		</g>
		<g>
			<circle class="st4" cx="157.2" cy="212.4" r="1.9"/>
		</g>
		<g>
			<circle class="st4" cx="166.1" cy="212.4" r="1.9"/>
		</g>
	</g>
	<g class="st8">
		<path class="st10" d="M179.6,188.1h4c-0.9,1.7-1.8,3.5-2.6,5.1c-0.3,0.6-0.6,1.2-0.8,1.7c-1,2.2-2.1,4.4-3,6.6
			c-2.6,5.7-4.9,11.3-6.9,17.1c-0.6,1.7-1.1,3.4-1.6,5.1c0,0.3-0.1,0.5-0.1,0.7c0,0.1,0,0.1,0,0.2v0.4c0,0.1,0,0.1,0,0.2
			c0,0.1,0,0.2,0,0.3c0,0,0,0.1,0,0.1c0,0.1,0,0.2,0.1,0.2c0,0,0,0,0,0.1c0.1,0.3,0.2,0.4,0.3,0.5h0c0,0,0,0-0.1-0.1
			c-0.2-0.2-0.8-0.6-1-0.8c0,0,0,0-0.1,0l0.7,1.8c-0.7-0.2-0.9-1-1-1.6c0,0.1-0.1,0.3-0.1,0.6c-0.1-0.6-0.3-0.8-0.4-1l0.2,2.3
			c-0.7-0.5-0.6-1.6-0.5-2.4c-0.1,0-0.2,0.1-0.2,0.1s-0.6,0.4-0.8,0.4l-0.6,1.6c0-0.6,0.2-1.3,0.5-1.9c-0.1-0.3-0.2-0.8-0.5-0.9
			c-0.4,0.7-1.1,1.6-2,1.6l1.5-1.4c-0.7,0.3-1,0.1-1,0.1c0.8-0.3,1.5-1.8,1.5-1.8h0c2.9-10.2,7.2-19.8,11.8-29.6
			C177.8,191.8,178.6,190,179.6,188.1z"/>
	</g>
	<g class="st8">
		<path class="st10" d="M265.1,192.5l-0.2,0.2c-0.5,0.3-1.2,0.2-1.5-0.4l-1.8-2.8l-4.3,2.7l1.8,2.8c0.3,0.5,0.2,1.2-0.3,1.5
			l-0.2,0.2c-0.5,0.3-1.2,0.2-1.5-0.4l-1.8-2.8l-2.7,1.7c-0.9,0.6-2.1,0.3-2.7-0.6l-3.9-6.2l-0.1-0.2h18l-0.1,0l1.8,2.8
			C265.8,191.5,265.6,192.2,265.1,192.5z"/>
	</g>
	<g>
		<g>
			<path class="st3" d="M165.2,225.1c-0.2,0-0.3-0.1-0.3-0.3c-0.1-1.4,1.2-3,1.2-3.1c0.1-0.1,0.3-0.2,0.4-0.1s0.2,0.3,0.1,0.4
				c0,0-1.2,1.5-1.1,2.7C165.5,225,165.3,225.1,165.2,225.1C165.2,225.1,165.2,225.1,165.2,225.1z"/>
		</g>
		<g>
			<path class="st4" d="M167.2,225.4c-0.1,0-0.1,0-0.2-0.1c-1.2-1-0.4-3.4-0.4-3.5c0.1-0.2,0.2-0.2,0.4-0.2c0.2,0.1,0.2,0.2,0.2,0.4
				c-0.2,0.6-0.6,2.2,0.2,2.8c0.1,0.1,0.2,0.3,0.1,0.4C167.4,225.4,167.3,225.4,167.2,225.4z"/>
		</g>
		<g>
			<path class="st5" d="M168.5,225.1c0,0-0.1,0-0.1,0c-1.5-0.5-1.2-2.8-1.1-2.9c0-0.2,0.2-0.3,0.4-0.3c0.2,0,0.3,0.2,0.3,0.4
				c0,0-0.3,1.9,0.7,2.2c0.2,0.1,0.2,0.2,0.2,0.4C168.8,225,168.7,225.1,168.5,225.1z"/>
		</g>
		<g>
			<path class="st6" d="M163.2,223.9c-0.2,0-0.3-0.1-0.3-0.3c0-0.2,0.1-0.3,0.3-0.3c1.1,0,1.9-1.6,2.2-2.2c0.1-0.2,0.2-0.2,0.4-0.2
				c0.2,0.1,0.2,0.2,0.2,0.4C165.9,221.4,164.9,223.8,163.2,223.9C163.2,223.9,163.2,223.9,163.2,223.9z"/>
		</g>
		<g>
			<path class="st7" d="M249.7,170.2c-8.8-11.7-25.5-21.4-41.6-15.1c-3.2,1.2-6.3,3.1-9.3,5.4c-10.7,8.4-17.3,20.6-21.9,30.4
				c-4.6,9.8-8.9,19.5-11.8,29.6c0,0,0,0,0,0s-0.7,1.4-1.5,1.8c0,0,0.4,0.3,1.3-0.3c0.5-0.3,0.8,0.8,0.8,1.1c0,0.3,0.8-0.3,0.8-0.3
				s0.4-0.6,0.9,1c0.1-0.7,0.3-1.1,0.5-0.8c0.2,0.2,1.1,0.8,1.1,0.8s-0.7-0.5-0.4-2.7c2.8-9.8,7-19.2,11.5-28.8
				c4.4-9.4,10.7-21.2,20.9-29.1c2.7-2.1,5.5-3.8,8.4-4.9c14.3-5.6,29.5,3.3,37.5,14c0.9,1.3,1.9,2.6,2.7,4l3-1.9
				C251.7,172.9,250.7,171.5,249.7,170.2z"/>
		</g>
		<g class="st8">
			<path class="st9" d="M252.6,174.4l-3,1.9c-0.9-1.4-1.8-2.7-2.7-4c-8-10.7-23.2-19.6-37.5-14c-2.9,1.1-5.7,2.8-8.4,4.9
				c-10.1,7.9-16.5,19.7-20.9,29.1c-4.5,9.6-8.7,19-11.5,28.8c-0.3,1.9,0.2,2.5,0.3,2.7c-0.1-0.1-0.5-0.3-0.7-0.5c0-0.3,0-0.5,0-0.8
				c0-1.4,0.4-2.8,0.8-4.2c0.4-1.2,0.7-2.4,1.1-3.6c0.8-2.4,1.7-4.8,2.6-7.2c0.9-2.4,1.9-4.7,3-7.1c1-2.4,2.1-4.7,3.2-7.1
				c0.4-0.9,0.8-1.8,1.2-2.6c4.4-9.4,10.7-21.2,20.9-29.1c2.7-2.1,5.5-3.8,8.4-4.9c14.3-5.6,29.5,3.3,37.5,14c0.9,1.3,1.9,2.6,2.7,4
				l2.2-1.4C252.1,173.6,252.4,174,252.6,174.4z"/>
		</g>
		<g>
			<g>
				<g>
					<path class="st4" d="M224.6,154.3c0,0,0,3.8-0.9,4c-1.1,0.3-3.2-3-3.2-3L224.6,154.3z"/>
				</g>
				<g>
					<path class="st4" d="M208.3,155.1c0,0,0.8,3.7,1.7,3.8c1.1,0.1,2.6-3.6,2.6-3.6L208.3,155.1z"/>
				</g>
			</g>
			<g>
				<path class="st10" d="M206,152.9c0,0,3.2,7,10,1.6c3.6,4.1,10.2,1.4,10-2.1"/>
			</g>
		</g>
		<g>
			<g>
				<path class="st4" d="M258.6,193.9L258.6,193.9c-0.6,0.4-1.4,0.2-1.7-0.3l-2.9-4.7c-0.2-0.3-0.1-0.6,0.2-0.8l1.1-0.7
					c0.3-0.2,0.6-0.1,0.8,0.2l2.9,4.7C259.3,192.8,259.2,193.6,258.6,193.9z"/>
			</g>
			<g class="st8">
				<path class="st10" d="M249.3,188.1h-3.6l-2-3.2c-2.6-4.2-1.5-9.6,2.4-12.5c0.2,1.1,0.4,2.3,0.6,3.5c0.5,2.9,1.2,6.3,2,9.8
					c0,0.1,0.1,0.2,0.1,0.4C249,186.8,249.2,187.4,249.3,188.1z"/>
			</g>
			<g>
				<path class="st4" d="M265,189.9L265,189.9c-0.6,0.4-1.4,0.2-1.7-0.3l-2.6-4.2c-0.4-0.6-0.2-1.3,0.4-1.7l0.1,0
					c0.6-0.4,1.3-0.2,1.7,0.4l2.6,4.2C265.7,188.8,265.6,189.6,265,189.9z"/>
			</g>
			<g>
				<path class="st27" d="M265.2,184.5l-13,8.1c-0.8,0.5-1.7,0.2-2.2-0.5l-5.2-8.3c-2.7-4.4-1.4-10.1,3-12.8l0,0
					c4.4-2.7,10.1-1.4,12.8,3l5.2,8.3C266.2,183.1,266,184.1,265.2,184.5z"/>
			</g>
			<g class="st28">
				<path class="st29" d="M249,170.4c-3.4,2.9-4.3,8-1.8,12l6,9.7l-1.1,0.7c-0.7,0.5-1.7,0.2-2.1-0.5l-5.2-8.3
					c-2.7-4.4-1.4-10.2,3-12.9C248.2,170.8,248.6,170.6,249,170.4z"/>
			</g>
		</g>
	</g>
	<g>
		<path d="M169,289.9l-1.6-8.3l11.4-25.5l11-2.1l4.3,22.1l4-0.8l1.7,8.7l-4,0.8l1.2,6.2l-10.2,2l-1.2-6.2L169,289.9z M182.6,267
			l-5,12.1l7.1-1.4L182.6,267z"/>
		<path d="M202.2,255.4c1.7-3.9,5.2-6.3,10.3-7.3c5.1-1,9.2,0,12.3,2.9c3.1,2.9,5.2,7.3,6.3,13.2c1.2,6,0.9,10.9-0.9,14.7
			c-1.7,3.9-5.2,6.3-10.4,7.3c-5.2,1-9.3,0-12.3-2.9c-3-2.9-5.1-7.4-6.3-13.3C200.1,264.1,200.4,259.2,202.2,255.4z M218.8,259.2
			c-1-1.5-2.5-2.1-4.5-1.7c-2,0.4-3.2,1.5-3.5,3.2c-0.3,1.8-0.2,4.2,0.4,7.2c0.6,3.1,1.4,5.5,2.3,7c0.9,1.5,2.4,2.1,4.5,1.7
			c2.1-0.4,3.2-1.5,3.6-3.2c0.3-1.7,0.2-4.2-0.4-7.3C220.5,263,219.8,260.7,218.8,259.2z"/>
		<path d="M238.2,276.4l-1.6-8.3l11.4-25.5l11-2.1l4.3,22.1l4-0.8l1.7,8.7l-4,0.8l1.2,6.2l-10.2,2l-1.2-6.2L238.2,276.4z
			 M251.8,253.6l-5,12.1l7.1-1.4L251.8,253.6z"/>
	</g>
</g>
</svg>
